<svg version="1.1" id="Layer_1" xmlns="http://www.w3.org/2000/svg" xmlns:xlink="http://www.w3.org/1999/xlink" x="0px" y="0px" width="100%" viewBox="0 0 200 200" enable-background="new 0 0 200 200" xml:space="preserve">
	<path fill="#000000" opacity="0.000000" stroke="none" d="
M119.000000,201.000000 
	C79.357826,201.000000 40.215649,201.000000 1.036737,201.000000 
	C1.036737,134.399536 1.036737,67.799034 1.036737,1.099268 
	C67.558670,1.099268 134.117538,1.099268 200.838196,1.099268 
	C200.838196,67.666351 200.838196,134.333145 200.838196,201.000000 
	C173.799316,201.000000 146.649658,201.000000 119.000000,201.000000 
M197.727158,157.831726 
	C197.763458,157.225021 197.799774,156.618332 197.974091,155.083054 
	C197.983429,151.266632 198.126434,147.444916 197.976120,143.634796 
	C197.583130,133.674622 193.636154,125.183525 186.848846,117.431938 
	C186.664597,117.162712 186.410324,117.010330 186.003098,116.296700 
	C184.693756,114.840714 183.384430,113.384727 181.892776,111.456131 
	C181.610428,111.287796 181.328079,111.119461 180.946274,110.255272 
	C178.975998,108.143318 177.005722,106.031357 174.784851,103.328796 
	C173.860703,102.214104 172.936554,101.099403 171.947678,99.281700 
	C169.296509,96.187691 166.645355,93.093681 163.767593,89.397606 
	C162.862183,88.260155 161.956757,87.122704 160.788773,85.353775 
	C157.213638,81.216736 153.638489,77.079704 149.952576,72.253563 
	C146.333817,68.139641 142.715073,64.025726 139.031708,59.199409 
	C135.041580,54.449501 131.051468,49.699593 126.928574,44.273247 
	C124.960693,42.178616 122.992813,40.083981 120.942955,37.318462 
	C119.629883,35.944630 118.316803,34.570797 116.558258,33.032028 
	C116.558258,33.032028 116.090172,32.952671 116.000648,32.222458 
	C112.953934,28.187820 109.907219,24.153183 106.893127,19.375093 
	C105.258148,19.424011 102.882553,18.798431 102.116928,19.639099 
	C98.874306,23.199537 96.110161,27.195734 93.014839,31.752302 
	C90.614326,37.295635 87.618294,42.673328 88.061676,49.883705 
	C87.701950,51.986217 87.342224,54.088730 86.276909,56.039913 
	C85.196922,55.671600 84.116943,55.303288 82.998695,54.992161 
	C82.998695,54.992161 83.059105,54.959290 82.805222,54.310890 
	C79.980286,52.283020 77.155357,50.255150 74.292160,48.252850 
	C74.292160,48.252850 74.253609,48.229969 73.873093,48.048180 
	C73.593910,48.017673 73.316002,47.978168 72.900513,47.464214 
	C72.715828,47.163425 72.447388,47.001507 71.821381,46.330116 
	C69.805603,44.826855 67.789833,43.323593 64.946075,41.202858 
	C63.802994,44.098904 62.844704,46.526775 61.256409,49.273048 
	C60.563206,51.183765 59.870003,53.094482 59.025127,55.737026 
	C58.988060,56.482616 58.950993,57.228203 58.299625,58.263130 
	C57.927849,60.174686 57.556072,62.086243 57.032303,64.788315 
	C57.078178,65.857712 57.124054,66.927101 57.024258,68.821693 
	C57.075386,70.214500 57.126511,71.607307 57.034016,73.792923 
	C57.083656,74.863396 57.133297,75.933861 57.265739,77.703682 
	C57.571480,78.804230 57.877220,79.904778 58.051449,81.707039 
	C58.661850,83.157829 59.272255,84.608620 59.953308,86.806496 
	C60.975376,89.488541 61.997448,92.170586 62.194794,95.002129 
	C58.789520,94.390900 55.384247,93.779671 51.211449,93.012413 
	C48.492264,92.306465 45.773083,91.600517 42.985920,90.110527 
	C40.575497,89.079224 38.213085,87.911926 35.746052,87.040977 
	C26.740849,83.861816 26.720394,83.896881 24.119539,92.533203 
	C23.985765,92.977417 24.156837,93.513428 24.037977,94.659325 
	C24.417185,95.429634 24.796392,96.199944 25.019203,97.638908 
	C25.067406,98.091629 25.115606,98.544342 25.018967,99.740471 
	C25.071909,100.493095 25.124849,101.245720 25.026766,102.769524 
	C25.322094,104.194824 25.617422,105.620125 26.001648,107.780548 
	C26.058062,108.517365 26.114475,109.254189 26.178303,110.648003 
	C26.506590,111.432793 26.834877,112.217583 27.029434,113.769180 
	C28.352133,116.850624 29.674833,119.932060 31.063313,123.486839 
	C31.063313,123.486839 31.203379,123.943748 31.137848,124.548935 
	C31.764751,124.974228 32.391655,125.399521 33.454277,125.973404 
	C33.454277,125.973404 33.908356,126.049210 34.162754,126.631012 
	C34.767406,127.432037 35.372063,128.233063 36.189751,129.583984 
	C36.794865,130.074600 37.399979,130.565201 38.063873,131.703217 
	C38.797405,132.745148 39.530933,133.787064 39.947117,135.508392 
	C39.005138,135.661743 38.063156,135.815094 36.688904,135.192596 
	C29.576345,135.128403 22.463102,134.985565 15.351640,135.047455 
	C13.190843,135.066269 11.034964,135.650162 8.038858,135.988052 
	C5.837487,136.104065 2.545270,135.326218 3.137007,138.964996 
	C3.969625,144.084991 5.647119,149.067612 7.010650,154.777481 
	C7.732701,155.852539 8.454752,156.927597 9.024267,158.737640 
	C10.340824,160.850479 11.657380,162.963333 13.011580,165.743835 
	C13.690662,166.446259 14.369743,167.148697 15.641520,168.125824 
	C17.065016,169.433517 18.488510,170.741211 20.134918,172.635666 
	C21.091108,173.366058 22.047297,174.096436 23.612755,175.103180 
	C24.399136,175.432388 25.185516,175.761597 26.237711,176.718750 
	C27.818892,177.498230 29.400074,178.277725 31.084124,179.531631 
	C31.262087,179.833908 31.525345,180.004852 32.102669,180.646484 
	C33.053406,181.052124 34.004143,181.457764 35.735062,182.065643 
	C39.203121,182.669800 42.671177,183.273956 46.490192,183.967712 
	C46.490192,183.967712 46.845528,183.897476 47.208431,184.740814 
	C62.134434,184.770630 77.060432,184.800446 92.913132,184.991669 
	C120.814583,184.994507 148.716064,185.013168 176.617401,184.955902 
	C178.090195,184.952881 179.561661,184.306625 181.655945,183.765701 
	C183.451447,181.885406 185.246948,180.005127 187.683151,177.837036 
	C190.736237,171.563721 193.789322,165.290405 197.016190,158.569702 
	C197.016190,158.569702 197.162811,158.112564 197.727158,157.831726 
z" />
	<path fill="#4120DA" opacity="1.000000" stroke="none" d="
M40.264465,134.828979 
	C39.530933,133.787064 38.797405,132.745148 38.458324,131.362259 
	C41.565418,130.688553 44.278057,130.355804 47.299114,130.290009 
	C54.305725,130.711273 61.011711,131.149414 67.700638,130.965805 
	C86.627235,130.446304 105.550682,129.759171 124.466026,128.926086 
	C128.330872,128.755844 132.154999,127.661278 136.331116,126.994751 
	C137.108521,126.995949 137.552719,126.995201 138.424408,126.998116 
	C144.237457,126.997673 149.623001,126.993561 155.327393,127.140640 
	C158.758942,128.866348 161.871643,130.440872 165.130737,132.292908 
	C166.194489,133.705734 167.111847,134.841064 167.813141,136.203369 
	C162.722427,136.623535 157.830841,136.649307 152.986130,137.138809 
	C151.903275,137.248230 150.984833,138.984756 149.680450,139.837372 
	C147.904709,139.154877 146.439209,138.607162 144.591507,138.032532 
	C142.464066,137.693695 140.718826,137.381760 138.533279,137.046127 
	C135.733719,137.008835 133.374466,136.995255 130.612732,136.966736 
	C129.137894,136.971558 128.065536,136.991302 126.551529,136.985718 
	C120.729645,136.933502 115.349419,136.906616 109.528221,136.866348 
	C106.732155,136.869003 104.377052,136.885040 101.576965,136.872803 
	C98.763451,136.857040 96.394928,136.869583 93.661469,136.759460 
	C91.485191,136.665527 89.673859,136.694244 87.438873,136.591705 
	C84.650291,136.547836 82.285370,136.635254 79.493843,136.576813 
	C76.341782,136.526550 73.616325,136.622131 70.478401,136.588959 
	C67.746353,136.417191 65.426781,136.374207 62.641640,136.218460 
	C55.787277,136.090652 49.398487,136.075592 42.792313,135.992279 
	C42.574928,135.923996 42.129326,135.828537 41.988434,135.585175 
	C41.319851,135.170883 40.792160,134.999939 40.264465,134.828979 
z" />
	<path fill="#8062E9" opacity="1.000000" stroke="none" d="
M46.845528,183.897476 
	C46.845528,183.897476 46.490192,183.967712 46.213860,183.629196 
	C45.292995,182.868134 44.648468,182.445587 44.086777,181.667770 
	C45.730667,180.574799 47.387257,179.988998 48.838295,179.076385 
	C68.005775,167.021301 87.167366,154.956314 106.253464,142.773239 
	C108.102951,141.592651 109.440414,139.609940 111.458038,137.999451 
	C114.268547,138.001175 116.636559,138.003036 118.956894,138.350174 
	C118.096611,139.705093 117.477669,141.018631 116.442169,141.678528 
	C102.330574,150.671417 88.076065,159.442520 74.042770,168.554749 
	C67.166855,173.019470 60.675480,178.076416 53.620346,182.900955 
	C51.496140,183.182495 49.761658,183.428436 47.735920,183.752167 
	C47.244953,183.852448 47.045238,183.874969 46.845528,183.897476 
z" />
	<path fill="#9276EB" opacity="1.000000" stroke="none" d="
M31.873898,180.044464 
	C31.525345,180.004852 31.262087,179.833908 31.187441,178.988953 
	C32.689064,177.302322 33.990067,176.006302 35.501572,175.039322 
	C44.842907,169.063171 54.133541,162.998108 63.632454,157.280624 
	C72.970169,151.660172 82.535309,146.417557 92.069946,141.343628 
	C93.094498,142.119965 94.049744,142.561813 94.938103,143.340332 
	C82.184898,151.814301 69.456650,159.887238 56.829857,168.115845 
	C50.470753,172.259964 44.295761,176.686584 37.739410,180.882477 
	C36.647877,180.524506 35.854446,180.269501 34.661613,180.006775 
	C33.466103,180.014191 32.669998,180.029327 31.873898,180.044464 
z" />
	<path fill="#5B3BE2" opacity="1.000000" stroke="none" d="
M35.976715,129.034088 
	C35.372063,128.233063 34.767406,127.432037 34.276165,126.168274 
	C35.262817,124.803116 36.136055,123.900696 37.308556,123.269836 
	C47.090168,123.364113 56.576237,123.298897 66.054085,122.985397 
	C83.790672,122.398712 101.530418,121.818130 119.250183,120.881729 
	C123.205704,120.672707 127.084091,119.003830 131.318451,118.143021 
	C132.758820,118.515701 133.878738,118.752426 135.297134,119.127106 
	C136.731949,119.842400 137.868286,120.419739 138.795441,121.332886 
	C137.393982,122.110710 136.214355,122.897034 135.007492,122.941299 
	C123.427361,123.366020 111.840637,123.610252 100.260010,124.023766 
	C94.316559,124.235992 88.375481,124.613327 82.449577,125.109833 
	C81.583496,125.182404 80.807983,126.335892 79.660316,126.990433 
	C78.889633,126.991531 78.449211,126.991432 77.921814,126.643478 
	C75.898315,124.290794 74.231010,124.152534 72.535812,126.994232 
	C68.718735,126.995636 65.359306,126.996727 61.773109,126.755676 
	C60.030735,126.675850 58.515141,126.838158 56.531883,127.000092 
	C49.368385,127.677849 42.672550,128.355972 35.976715,129.034088 
z" />
	<path fill="#B69AF3" opacity="1.000000" stroke="none" d="
M63.107204,136.331223 
	C65.426781,136.374207 67.746353,136.417191 70.415779,136.869568 
	C63.574600,142.155777 56.367153,147.008606 49.196568,151.915298 
	C39.420334,158.604996 29.672192,165.335754 19.912008,172.048904 
	C18.488510,170.741211 17.065016,169.433517 15.569939,167.749146 
	C29.317366,158.714081 43.167549,150.104462 56.907055,141.321732 
	C58.277504,140.445694 58.974640,138.516342 60.310768,137.035706 
	C61.460579,136.774109 62.283894,136.552658 63.107204,136.331223 
z" />
	<path fill="#A488F0" opacity="1.000000" stroke="none" d="
M79.920448,136.722656 
	C82.285370,136.635254 84.650291,136.547836 87.348083,136.850723 
	C70.831810,147.971252 53.994347,158.719879 37.124313,169.417145 
	C33.466862,171.736343 29.692446,173.871094 25.971901,176.090790 
	C25.185516,175.761597 24.399136,175.432388 23.384886,174.639832 
	C26.035316,172.343307 28.941345,170.552017 31.786463,168.668716 
	C38.947853,163.928268 46.073277,159.133514 53.228863,154.384247 
	C62.117775,148.484573 71.022537,142.608780 79.920448,136.722656 
z" />
	<path fill="#9C7FEE" opacity="1.000000" stroke="none" d="
M26.104807,176.404770 
	C29.692446,173.871094 33.466862,171.736343 37.124313,169.417145 
	C53.994347,158.719879 70.831810,147.971252 87.771744,136.981995 
	C89.673859,136.694244 91.485191,136.665527 93.656326,137.041260 
	C94.015602,137.633072 94.015076,137.820404 93.781914,138.185883 
	C93.369843,138.909286 93.190414,139.454544 92.799591,140.121002 
	C92.324051,140.445541 92.128204,140.701172 92.000648,141.009155 
	C82.535309,146.417557 72.970169,151.660172 63.632454,157.280624 
	C54.133541,162.998108 44.842907,169.063171 35.501572,175.039322 
	C33.990067,176.006302 32.689064,177.302322 31.136005,178.751740 
	C29.400074,178.277725 27.818892,177.498230 26.104807,176.404770 
z" />
	<path fill="#AC90F2" opacity="1.000000" stroke="none" d="
M79.493843,136.576813 
	C71.022537,142.608780 62.117775,148.484573 53.228863,154.384247 
	C46.073277,159.133514 38.947853,163.928268 31.786463,168.668716 
	C28.941345,170.552017 26.035316,172.343307 23.080252,174.501648 
	C22.047297,174.096436 21.091108,173.366058 20.023464,172.342285 
	C29.672192,165.335754 39.420334,158.604996 49.196568,151.915298 
	C56.367153,147.008606 63.574600,142.155777 70.828247,136.998337 
	C73.616325,136.622131 76.341782,136.526550 79.493843,136.576813 
z" />
	<path fill="#5B3BE2" opacity="1.000000" stroke="none" d="
M59.882660,86.059410 
	C59.272255,84.608620 58.661850,83.157829 58.565552,81.354721 
	C61.565960,81.012108 64.055206,80.946587 66.538086,81.043701 
	C82.708824,81.676193 98.876289,82.405441 115.050926,82.905586 
	C116.675362,82.955826 118.340553,81.687866 120.236900,81.024811 
	C120.653633,81.019112 120.820305,81.020271 121.146446,81.314766 
	C123.206764,83.403847 125.107613,85.199585 126.748138,87.249069 
	C122.772896,87.430031 119.057709,87.368126 115.343079,87.282623 
	C97.539268,86.872826 79.735619,86.456635 61.590332,86.042824 
	C60.793392,86.048424 60.338028,86.053917 59.882660,86.059410 
z" />
	<path fill="#E1C9F7" opacity="1.000000" stroke="none" d="
M6.963320,154.108978 
	C5.647119,149.067612 3.969625,144.084991 3.137007,138.964996 
	C2.545270,135.326218 5.837487,136.104065 8.934381,135.998489 
	C16.899723,136.074051 23.969542,136.139160 30.946064,136.524261 
	C26.360273,139.708267 21.739162,142.392761 17.414726,145.491318 
	C13.752748,148.115189 10.433973,151.218079 6.963320,154.108978 
z" />
	<path fill="#6C4DE6" opacity="1.000000" stroke="none" d="
M57.182938,77.004333 
	C57.133297,75.933861 57.083656,74.863396 57.562859,73.396301 
	C70.848061,73.330498 83.603081,73.763687 96.361588,73.930428 
	C100.243584,73.981163 104.135170,73.297302 108.342133,72.969070 
	C109.086868,73.026497 109.511833,73.064735 110.100662,73.383492 
	C111.866844,75.440109 113.469170,77.216209 114.600533,78.994690 
	C107.709839,78.910393 101.285049,78.955307 94.871437,78.709076 
	C82.305305,78.226631 69.745415,77.581894 57.182938,77.004333 
z" />
	<path fill="#502EE0" opacity="1.000000" stroke="none" d="
M163.994186,89.999664 
	C166.645355,93.093681 169.296509,96.187691 171.551178,99.639008 
	C163.954727,98.874283 156.754593,97.753326 149.555939,96.623047 
	C149.403931,96.599174 149.258286,96.481766 149.127380,96.384232 
	C146.410751,94.360023 144.597839,95.763153 142.658722,97.954102 
	C141.212097,97.605682 140.108612,97.298012 138.941711,96.659424 
	C137.585114,95.553925 136.291916,94.779320 134.746704,93.752609 
	C132.996262,92.668427 131.497864,91.836349 129.962311,90.680534 
	C129.283661,89.237556 128.642136,88.118324 128.423859,86.999527 
	C134.010880,87.721939 139.188431,88.358734 144.334579,89.189804 
	C149.505035,90.024811 154.622452,91.228928 159.812515,91.873390 
	C161.108856,92.034363 162.595169,90.665436 163.994186,89.999664 
z" />
	<path fill="#C0A5F4" opacity="1.000000" stroke="none" d="
M59.984276,137.075867 
	C58.974640,138.516342 58.277504,140.445694 56.907055,141.321732 
	C43.167549,150.104462 29.317366,158.714081 15.273591,167.611786 
	C14.369743,167.148697 13.690662,166.446259 13.150839,165.108124 
	C24.635899,156.781036 36.014259,149.136765 47.288574,141.341995 
	C48.792988,140.301880 49.770313,138.499405 51.440842,137.009552 
	C54.588062,137.004715 57.286171,137.040298 59.984276,137.075867 
z" />
	<path fill="#6444E4" opacity="1.000000" stroke="none" d="
M57.224339,77.354004 
	C69.745415,77.581894 82.305305,78.226631 94.871437,78.709076 
	C101.285049,78.955307 107.709839,78.910393 114.904388,79.124878 
	C117.115074,79.845680 118.550957,80.438675 119.986832,81.031677 
	C118.340553,81.687866 116.675362,82.955826 115.050926,82.905586 
	C98.876289,82.405441 82.708824,81.676193 66.538086,81.043701 
	C64.055206,80.946587 61.565960,81.012108 58.631310,81.003868 
	C57.877220,79.904778 57.571480,78.804230 57.224339,77.354004 
z" />
	<path fill="#4C2AE0" opacity="1.000000" stroke="none" d="
M163.880890,89.698639 
	C162.595169,90.665436 161.108856,92.034363 159.812515,91.873390 
	C154.622452,91.228928 149.505035,90.024811 144.334579,89.189804 
	C139.188431,88.358734 134.010880,87.721939 128.175812,86.998512 
	C127.504532,86.997063 127.008453,86.995323 127.008453,86.995323 
	C125.107613,85.199585 123.206764,83.403847 121.429192,81.047272 
	C123.315125,80.473160 125.110039,80.236382 126.834892,80.485237 
	C134.372925,81.572754 141.870468,82.975533 149.430618,83.849190 
	C151.199127,84.053551 153.154831,82.638145 155.288635,82.181572 
	C157.385696,83.591866 159.218506,84.788559 161.051331,85.985252 
	C161.956757,87.122704 162.862183,88.260155 163.880890,89.698639 
z" />
	<path fill="#5733E4" opacity="1.000000" stroke="none" d="
M143.001862,97.994850 
	C144.597839,95.763153 146.410751,94.360023 149.127380,96.384232 
	C149.258286,96.481766 149.403931,96.599174 149.555939,96.623047 
	C156.754593,97.753326 163.954727,98.874283 171.583542,99.990509 
	C172.936554,101.099403 173.860703,102.214104 174.935638,103.975281 
	C175.397415,105.747856 175.708435,106.873947 175.592209,107.997467 
	C174.044891,107.809273 172.929291,107.499779 171.803986,107.459129 
	C166.529938,107.268639 161.253220,107.152130 155.653259,107.006416 
	C154.897476,106.991211 154.465866,106.978790 153.862930,106.677063 
	C150.132187,103.918358 146.572784,101.448959 143.010986,98.733368 
	C143.008591,98.487190 143.001862,97.994850 143.001862,97.994850 
z" />
	<path fill="#5436DE" opacity="1.000000" stroke="none" d="
M121.024933,37.989349 
	C122.992813,40.083981 124.960693,42.178616 126.971924,44.991760 
	C127.012703,46.473412 127.010139,47.236546 126.600937,47.987106 
	C114.466812,45.977898 102.739319,43.981266 91.051422,41.636459 
	C92.360138,39.842606 93.629272,38.396931 95.351173,36.964493 
	C98.718758,37.287479 101.628105,37.780125 104.549568,37.867550 
	C110.037651,38.031792 115.532753,37.961887 121.024933,37.989349 
z" />
	<path fill="#7556E7" opacity="1.000000" stroke="none" d="
M108.022369,72.949883 
	C104.135170,73.297302 100.243584,73.981163 96.361588,73.930428 
	C83.603081,73.763687 70.848061,73.330498 57.634670,72.999893 
	C57.126511,71.607307 57.075386,70.214500 57.546425,68.410110 
	C64.491730,68.332245 70.915878,68.647667 77.337715,69.004784 
	C83.918770,69.370766 90.494202,69.879723 97.079651,70.096291 
	C98.774529,70.152031 100.497818,69.343674 102.526199,68.988686 
	C104.570351,70.346687 106.296364,71.648285 108.022369,72.949883 
z" />
	<path fill="#7F60E9" opacity="1.000000" stroke="none" d="
M102.208061,68.932281 
	C100.497818,69.343674 98.774529,70.152031 97.079651,70.096291 
	C90.494202,69.879723 83.918770,69.370766 77.337715,69.004784 
	C70.915878,68.647667 64.491730,68.332245 57.619263,67.997513 
	C57.124054,66.927101 57.078178,65.857712 57.541466,64.392746 
	C65.063255,64.181992 72.079956,64.598793 79.087189,64.475906 
	C84.390198,64.382904 89.681129,63.601089 95.279861,63.239677 
	C97.025406,64.279114 98.468513,65.204689 100.068451,66.388008 
	C100.886208,67.407928 101.547134,68.170105 102.208061,68.932281 
z" />
	<path fill="#886AEB" opacity="1.000000" stroke="none" d="
M27.163166,113.002373 
	C26.834877,112.217583 26.506590,111.432793 26.477798,110.323288 
	C27.183296,109.997299 27.589298,109.996025 28.403336,110.010086 
	C30.591669,110.324776 32.383381,110.938606 34.150475,110.874443 
	C50.393223,110.284691 66.640060,109.716019 82.861313,108.737030 
	C84.997734,108.608093 86.997070,106.207672 89.383606,105.023788 
	C92.464081,106.157623 95.220833,107.126945 97.892776,108.457260 
	C96.243362,109.541931 94.702728,110.835526 93.110535,110.902451 
	C73.971733,111.707039 54.824432,112.307274 35.682194,113.035599 
	C33.778187,113.108047 31.892887,113.672165 29.720802,113.885773 
	C28.682858,113.509758 27.923012,113.256065 27.163166,113.002373 
z" />
	<path fill="#C8AEF4" opacity="1.000000" stroke="none" d="
M50.991730,137.049988 
	C49.770313,138.499405 48.792988,140.301880 47.288574,141.341995 
	C36.014259,149.136765 24.635899,156.781036 13.132017,164.774292 
	C11.657380,162.963333 10.340824,160.850479 9.307291,158.365997 
	C9.590316,157.994354 10.003882,157.989380 10.347007,158.034576 
	C12.490290,157.702774 14.598567,157.803131 16.041054,156.872025 
	C26.106405,150.375137 36.033905,143.664688 46.420002,136.986420 
	C48.220211,136.983459 49.605968,137.016724 50.991730,137.049988 
z" />
	<path fill="#997DED" opacity="1.000000" stroke="none" d="
M27.995300,109.994751 
	C27.589298,109.996025 27.183296,109.997299 26.474094,109.994797 
	C26.114475,109.254189 26.058062,108.517365 26.300831,107.226898 
	C31.892448,105.783936 37.154224,104.494789 42.483517,104.086136 
	C54.672215,103.151474 66.893921,102.647285 79.489525,101.983131 
	C80.910408,102.053841 81.943993,102.109688 82.957123,102.556107 
	C81.993042,103.628227 81.127693,104.713112 80.090836,104.914330 
	C77.189766,105.477348 74.225342,105.865585 71.272438,105.982605 
	C60.770214,106.398766 50.247124,106.439049 39.764503,107.121765 
	C35.795898,107.380241 31.915762,108.997078 27.995300,109.994751 
z" />
	<path fill="#886AEB" opacity="1.000000" stroke="none" d="
M94.977432,63.125816 
	C89.681129,63.601089 84.390198,64.382904 79.087189,64.475906 
	C72.079956,64.598793 65.063255,64.181992 57.617462,63.997482 
	C57.556072,62.086243 57.927849,60.174686 59.025650,58.184242 
	C67.454842,58.737076 75.151047,59.510654 82.866646,59.888996 
	C84.547737,59.971432 86.298157,58.640175 88.290939,58.135574 
	C90.027771,59.258068 91.490303,60.204998 93.099854,61.393707 
	C93.823730,62.132259 94.400581,62.629040 94.977432,63.125816 
z" />
	<path fill="#A387F0" opacity="1.000000" stroke="none" d="
M79.102219,101.968269 
	C66.893921,102.647285 54.672215,103.151474 42.483517,104.086136 
	C37.154224,104.494789 31.892448,105.783936 26.256382,106.859329 
	C25.617422,105.620125 25.322094,104.194824 25.557619,102.383614 
	C31.187748,101.711815 36.283806,101.298889 41.387051,101.169754 
	C49.090847,100.974808 56.799526,100.951569 64.506416,100.913719 
	C66.656128,100.903160 69.078300,101.528702 69.309845,98.053543 
	C70.064774,98.048546 70.496292,98.062584 71.061203,98.304993 
	C71.281929,98.686317 71.369255,98.839279 71.417145,99.124298 
	C71.377716,99.256340 71.670815,99.336418 71.670815,99.336418 
	C71.670815,99.336418 71.770851,98.956696 72.165909,98.967842 
	C73.350746,98.997803 74.140526,99.016609 75.109253,99.309349 
	C76.559547,100.378273 77.830887,101.173271 79.102219,101.968269 
z" />
	<path fill="#AC90F2" opacity="1.000000" stroke="none" d="
M68.986435,98.072586 
	C69.078300,101.528702 66.656128,100.903160 64.506416,100.913719 
	C56.799526,100.951569 49.090847,100.974808 41.387051,101.169754 
	C36.283806,101.298889 31.187748,101.711815 25.633133,101.998024 
	C25.124849,101.245720 25.071909,100.493095 25.546558,99.369980 
	C35.109947,98.661301 44.156364,98.487526 53.176373,97.904884 
	C56.840797,97.668175 60.447765,96.541992 64.376328,95.988068 
	C66.109993,96.794609 67.548218,97.433594 68.986435,98.072586 
z" />
	<path fill="#5B3BE2" opacity="1.000000" stroke="none" d="
M120.983948,37.653904 
	C115.532753,37.961887 110.037651,38.031792 104.549568,37.867550 
	C101.628105,37.780125 98.718758,37.287479 95.364609,36.628101 
	C94.969528,34.529800 95.013771,32.781136 95.299858,30.900866 
	C96.024696,30.506849 96.507698,30.244440 97.334305,30.139688 
	C103.275818,32.055408 108.850502,33.898514 114.506538,35.443794 
	C115.090721,35.603394 116.159698,33.988491 117.003731,33.196964 
	C118.316803,34.570797 119.629883,35.944630 120.983948,37.653904 
z" />
	<path fill="#D8BEF8" opacity="1.000000" stroke="none" d="
M10.003883,157.989380 
	C10.003882,157.989380 9.590316,157.994354 9.383559,157.998505 
	C8.454752,156.927597 7.732701,155.852539 6.986984,154.443237 
	C10.433973,151.218079 13.752748,148.115189 17.414726,145.491318 
	C21.739162,142.392761 26.360273,139.708267 31.353765,136.476593 
	C33.222290,136.142868 34.589817,136.176804 35.969696,136.419250 
	C35.982044,136.627747 36.004543,137.044846 35.936516,137.373169 
	C31.695269,140.574997 27.422997,143.316895 23.378448,146.361313 
	C19.786480,149.065033 16.447189,152.104477 12.680964,155.049774 
	C11.578332,156.065689 10.791108,157.027527 10.003883,157.989380 
z" />
	<path fill="#6540E8" opacity="1.000000" stroke="none" d="
M186.086029,116.974777 
	C186.410324,117.010330 186.664597,117.162712 186.921494,118.030052 
	C187.996475,121.088181 188.998825,123.548187 189.705078,126.160156 
	C188.111267,126.546326 186.821213,126.903374 185.513931,126.985222 
	C183.676743,127.100227 181.826752,127.010887 179.690033,126.852112 
	C177.596252,124.799408 175.794678,122.903526 173.719666,120.865646 
	C172.624054,119.823723 171.801880,118.923820 171.076233,117.661072 
	C174.120880,117.197083 177.068985,117.095947 180.264862,117.180252 
	C182.370438,117.235382 184.228241,117.105080 186.086029,116.974777 
z" />
	<path fill="#B59BF0" opacity="1.000000" stroke="none" d="
M64.080879,95.820526 
	C60.447765,96.541992 56.840797,97.668175 53.176373,97.904884 
	C44.156364,98.487526 35.109947,98.661301 25.618980,98.998276 
	C25.115606,98.544342 25.067406,98.091629 25.459946,97.127686 
	C28.362680,96.410225 30.840719,96.318298 33.283524,95.975380 
	C39.523716,95.099396 45.748203,94.111549 51.978973,93.168442 
	C55.384247,93.779671 58.789520,94.390900 62.825218,95.042526 
	C63.769993,95.238983 63.978401,95.484848 64.080879,95.820526 
z" />
	<path fill="#9073ED" opacity="1.000000" stroke="none" d="
M88.016647,57.960014 
	C86.298157,58.640175 84.547737,59.971432 82.866646,59.888996 
	C75.151047,59.510654 67.454842,58.737076 59.332802,58.039574 
	C58.950993,57.228203 58.988060,56.482616 59.501991,55.367092 
	C63.008209,54.982414 66.037552,54.958740 69.066910,54.955002 
	C73.730965,54.949245 78.395042,54.957169 83.059105,54.959290 
	C83.059105,54.959290 82.998695,54.992161 83.059853,55.289253 
	C84.432777,56.034626 85.744553,56.482906 87.278679,57.037319 
	C87.781868,57.346844 87.953735,57.619030 88.016647,57.960014 
z" />
	<path fill="#6B4CE4" opacity="1.000000" stroke="none" d="
M37.009296,122.998276 
	C36.136055,123.900696 35.262817,124.803116 34.148964,125.877373 
	C33.908356,126.049210 33.454277,125.973404 33.183296,125.614395 
	C32.342667,124.818176 31.773022,124.380966 31.203377,123.943748 
	C31.203379,123.943748 31.063313,123.486839 31.086010,122.871490 
	C32.215557,117.484970 36.088474,119.406754 39.203239,119.219742 
	C40.608986,119.293121 41.808857,119.142662 43.423851,118.993324 
	C45.222706,118.992844 46.606434,118.991241 48.459518,118.993469 
	C55.716305,118.677322 62.501476,118.269753 69.292648,118.093864 
	C71.186142,118.044823 73.097359,118.680580 74.701332,119.270462 
	C65.910141,120.026108 57.407253,120.378822 48.930744,121.059906 
	C44.930836,121.381294 40.981529,122.332466 37.009296,122.998276 
z" />
	<path fill="#CDB6F2" opacity="1.000000" stroke="none" d="
M24.185978,94.006699 
	C24.156837,93.513428 23.985765,92.977417 24.119539,92.533203 
	C26.720394,83.896881 26.740849,83.861816 35.746052,87.040977 
	C38.213085,87.911926 40.575497,89.079224 42.744003,90.784042 
	C36.396717,92.307266 30.291348,93.156982 24.185978,94.006699 
z" />
	<path fill="#9B81E8" opacity="1.000000" stroke="none" d="
M82.932159,54.635090 
	C78.395042,54.957169 73.730965,54.949245 69.066910,54.955002 
	C66.037552,54.958740 63.008209,54.982414 59.577831,55.001183 
	C59.870003,53.094482 60.563206,51.183765 61.921600,49.126770 
	C63.054012,48.977577 63.521233,48.974655 64.097412,49.354095 
	C67.869476,51.168213 71.609001,53.112656 74.330421,48.227283 
	C77.155357,50.255150 79.980286,52.283020 82.932159,54.635090 
z" />
	<path fill="#6C4DDF" opacity="1.000000" stroke="none" d="
M106.860497,20.118546 
	C109.907219,24.153183 112.953934,28.187820 115.693497,32.534752 
	C110.951279,27.989861 104.733803,28.113070 99.020111,26.630703 
	C101.667671,24.232765 104.264084,22.175657 106.860497,20.118546 
z" />
	<path fill="#DBCCFF" opacity="1.000000" stroke="none" d="
M181.033752,183.959808 
	C179.561661,184.306625 178.090195,184.952881 176.617401,184.955902 
	C148.716064,185.013168 120.814583,184.994507 92.448212,184.738739 
	C91.983292,184.485794 91.983475,184.141327 92.447296,184.061066 
	C113.603302,183.934158 134.295486,183.887527 155.451447,183.916901 
	C163.945602,183.945511 171.976013,183.898148 180.260742,183.901611 
	C180.687973,183.954926 180.860855,183.957367 181.033752,183.959808 
z" />
	<path fill="#C0A5F4" opacity="1.000000" stroke="none" d="
M24.111977,94.333008 
	C30.291348,93.156982 36.396717,92.307266 42.777992,91.176056 
	C45.773083,91.600517 48.492264,92.306465 51.595211,93.090424 
	C45.748203,94.111549 39.523716,95.099396 33.283524,95.975380 
	C30.840719,96.318298 28.362680,96.410225 25.538145,96.793350 
	C24.796392,96.199944 24.417185,95.429634 24.111977,94.333008 
z" />
	<path fill="#775DC8" opacity="1.000000" stroke="none" d="
M190.001160,126.008202 
	C188.998825,123.548187 187.996475,121.088181 186.992035,118.246994 
	C193.636154,125.183525 197.583130,133.674622 197.976120,143.634796 
	C198.126434,147.444916 197.983429,151.266632 197.589478,155.541290 
	C196.783356,156.010452 196.361847,156.021378 195.745804,155.897766 
	C195.309296,155.549881 195.128403,155.293442 195.173370,154.622055 
	C195.544510,151.166168 195.750854,148.082123 195.969696,144.595490 
	C195.322281,141.465378 194.662384,138.737885 193.991791,135.620377 
	C192.654465,132.156311 191.327805,129.082260 190.001160,126.008202 
z" />
	<path fill="#6444E4" opacity="1.000000" stroke="none" d="
M98.968964,26.971531 
	C104.733803,28.113070 110.951279,27.989861 115.738266,32.899857 
	C116.090172,32.952671 116.558258,33.032028 116.780991,33.114494 
	C116.159698,33.988491 115.090721,35.603394 114.506538,35.443794 
	C108.850502,33.898514 103.275818,32.055408 97.467125,29.869469 
	C97.827209,28.618237 98.398087,27.794884 98.968964,26.971531 
z" />
	<path fill="#9470E8" opacity="1.000000" stroke="none" d="
M181.344849,183.862762 
	C180.860855,183.957367 180.687973,183.954926 180.247437,183.603027 
	C179.920944,182.858932 179.862091,182.464264 179.861603,181.636841 
	C179.914062,179.475342 179.908142,177.746628 180.184860,175.812759 
	C183.649933,173.744171 186.832367,171.880722 189.963867,170.372238 
	C188.956116,173.193069 187.999283,175.658951 187.042450,178.124847 
	C185.246948,180.005127 183.451447,181.885406 181.344849,183.862762 
z" />
	<path fill="#785AE5" opacity="1.000000" stroke="none" d="
M38.997364,118.995911 
	C36.088474,119.406754 32.215557,117.484970 31.053122,122.634827 
	C29.674833,119.932060 28.352133,116.850624 27.096300,113.385773 
	C27.923012,113.256065 28.682858,113.509758 29.803959,114.236588 
	C31.467566,114.860970 32.802284,114.881302 34.064846,115.193466 
	C36.069736,115.689163 38.026440,116.379753 39.773926,117.171814 
	C39.362007,117.902458 39.179684,118.449181 38.997364,118.995911 
z" />
	<path fill="#502EE0" opacity="1.000000" stroke="none" d="
M36.083233,129.309052 
	C42.672550,128.355972 49.368385,127.677849 56.532082,127.251190 
	C57.000061,127.670074 57.000183,127.837479 56.701691,128.271637 
	C53.265614,129.033279 50.128159,129.528168 46.990700,130.023056 
	C44.278057,130.355804 41.565418,130.688553 38.428932,131.038559 
	C37.399979,130.565201 36.794865,130.074600 36.083233,129.309052 
z" />
	<path fill="#9174D6" opacity="1.000000" stroke="none" d="
M187.362793,177.980927 
	C187.999283,175.658951 188.956116,173.193069 189.965912,169.981506 
	C191.990646,165.811050 193.962402,162.386261 196.161285,158.974670 
	C196.388382,158.987854 196.842422,159.017105 196.842422,159.017105 
	C193.789322,165.290405 190.736237,171.563721 187.362793,177.980927 
z" />
	<path fill="#EDE0FF" opacity="1.000000" stroke="none" d="
M91.983475,184.141327 
	C91.983475,184.141327 91.983292,184.485794 91.984863,184.658020 
	C77.060432,184.800446 62.134434,184.770630 47.026978,184.319153 
	C47.045238,183.874969 47.244953,183.852448 48.201115,183.824936 
	C62.318687,183.836945 75.679810,183.853943 89.408775,183.911652 
	C90.512238,184.015350 91.247856,184.078339 91.983475,184.141327 
z" />
	<path fill="#3E1FD1" opacity="1.000000" stroke="none" d="
M88.290939,58.135578 
	C87.953735,57.619030 87.781868,57.346844 87.250710,56.853306 
	C87.000381,56.563156 86.982498,56.191242 86.982498,56.191242 
	C87.342224,54.088730 87.701950,51.986217 88.428284,49.446476 
	C89.188812,48.988567 89.582733,48.967888 90.354279,48.963486 
	C91.487038,48.988605 92.242165,48.997452 92.997284,49.379662 
	C92.994545,50.499866 92.991798,51.246708 92.629654,52.008301 
	C91.853638,52.986595 90.966904,54.029495 91.113510,54.897961 
	C91.472641,57.025486 92.308701,59.072510 92.952835,61.151928 
	C91.490303,60.204998 90.027771,59.258068 88.290939,58.135578 
z" />
	<path fill="#A387F0" opacity="1.000000" stroke="none" d="
M74.311295,48.240067 
	C71.609001,53.112656 67.869476,51.168213 64.157425,48.993530 
	C66.117653,43.726597 69.465591,47.607437 72.095184,46.978458 
	C72.447388,47.001507 72.715828,47.163425 73.121475,47.890202 
	C73.342438,48.316189 73.814560,48.448936 73.814560,48.448936 
	C73.814560,48.448936 74.253609,48.229969 74.253609,48.229969 
	C74.253609,48.229969 74.292160,48.252850 74.311295,48.240067 
z" />
	<path fill="#4A31C0" opacity="1.000000" stroke="none" d="
M127.007568,47.999680 
	C127.010139,47.236546 127.012703,46.473412 127.038307,45.329979 
	C131.051468,49.699593 135.041580,54.449501 139.002060,59.600567 
	C138.972412,60.001724 138.855667,60.100746 138.558380,60.028744 
	C137.506073,59.635185 136.751083,59.313629 135.858185,58.684479 
	C133.825851,56.578255 131.931427,54.779629 129.895126,52.674553 
	C128.838028,50.911964 127.922791,49.455822 127.007568,47.999680 
z" />
	<path fill="#775DC8" opacity="1.000000" stroke="none" d="
M99.020111,26.630703 
	C98.398087,27.794884 97.827209,28.618237 97.123520,29.711811 
	C96.507698,30.244440 96.024696,30.506849 94.984634,30.895203 
	C94.008774,31.024988 93.589958,31.028833 93.171150,31.032677 
	C96.110161,27.195734 98.874306,23.199537 102.116928,19.639099 
	C102.882553,18.798431 105.258148,19.424011 106.876816,19.746820 
	C104.264084,22.175657 101.667671,24.232765 99.020111,26.630703 
z" />
	<path fill="#5842BB" opacity="1.000000" stroke="none" d="
M93.092995,31.392490 
	C93.589958,31.028833 94.008774,31.024988 94.742798,31.026810 
	C95.013771,32.781136 94.969528,34.529800 94.911835,36.614861 
	C93.629272,38.396931 92.360138,39.842606 90.984879,42.022514 
	C90.578041,44.820236 90.277344,46.883720 89.976654,48.947208 
	C89.582733,48.967888 89.188812,48.988567 88.499588,49.028297 
	C87.618294,42.673328 90.614326,37.295635 93.092995,31.392490 
z" />
	<path fill="#482EBC" opacity="1.000000" stroke="none" d="
M139.034363,59.956764 
	C142.715073,64.025726 146.333817,68.139641 149.929138,72.672256 
	C149.905701,73.090942 149.748505,73.239662 149.443085,73.117767 
	C147.436844,71.983139 145.736023,70.970413 144.021149,69.591492 
	C143.118774,67.784233 142.184875,66.368835 141.354599,64.895050 
	C140.470520,63.325748 139.684494,61.701187 138.855667,60.100746 
	C138.855667,60.100746 138.972412,60.001724 139.034363,59.956764 
z" />
	<path fill="#482EBC" opacity="1.000000" stroke="none" d="
M160.920044,85.669510 
	C159.218506,84.788559 157.385696,83.591866 155.145523,81.883499 
	C153.161606,79.581329 151.585037,77.790833 150.001740,75.651329 
	C149.912827,74.614769 149.830658,73.927216 149.748505,73.239662 
	C149.748505,73.239662 149.905701,73.090942 149.984528,73.016808 
	C153.638489,77.079704 157.213638,81.216736 160.920044,85.669510 
z" />
	<path fill="#AB97DE" opacity="1.000000" stroke="none" d="
M71.958282,46.654289 
	C69.465591,47.607437 66.117653,43.726597 64.048462,48.611168 
	C63.521233,48.974655 63.054012,48.977577 62.236603,48.967575 
	C62.844704,46.526775 63.802994,44.098904 64.946075,41.202858 
	C67.789833,43.323593 69.805603,44.826855 71.958282,46.654289 
z" />
	<path fill="#4A31C0" opacity="1.000000" stroke="none" d="
M64.376328,95.988068 
	C63.978401,95.484848 63.769993,95.238983 63.237583,94.967781 
	C61.997448,92.170586 60.975376,89.488541 59.917984,86.432953 
	C60.338028,86.053917 60.793392,86.048424 61.614975,86.383682 
	C62.648006,87.818954 63.314819,88.913483 63.986992,90.377350 
	C64.654076,91.833267 65.315811,92.919838 66.070236,94.363937 
	C67.761528,95.152603 69.360123,95.583748 70.965218,96.358398 
	C70.957077,97.160156 70.942436,97.618385 70.927795,98.076622 
	C70.496292,98.062584 70.064774,98.048546 69.309845,98.053543 
	C67.548218,97.433594 66.109993,96.794609 64.376328,95.988068 
z" />
	<path fill="#FFFFFF" opacity="1.000000" stroke="none" d="
M35.957344,136.210754 
	C34.589817,136.176804 33.222290,136.142868 31.447063,136.156601 
	C23.969542,136.139160 16.899723,136.074051 9.353368,135.992096 
	C11.034964,135.650162 13.190843,135.066269 15.351640,135.047455 
	C22.463102,134.985565 29.576345,135.128403 36.610382,135.623413 
	C36.340355,136.106384 36.148849,136.158569 35.957344,136.210754 
z" />
	<path fill="#7766B6" opacity="1.000000" stroke="none" d="
M35.061020,180.014496 
	C35.854446,180.269501 36.647877,180.524506 38.120415,180.902557 
	C40.534328,181.358093 42.269135,181.690567 44.003941,182.023041 
	C44.648468,182.445587 45.292995,182.868134 46.038383,183.584396 
	C42.671177,183.273956 39.203121,182.669800 35.373795,181.656998 
	C35.028690,180.837067 35.044853,180.425797 35.061020,180.014496 
z" />
	<path fill="#6346CB" opacity="1.000000" stroke="none" d="
M186.044556,116.635742 
	C184.228241,117.105080 182.370438,117.235382 180.328003,116.847504 
	C180.697006,114.933067 181.250656,113.536812 181.873230,112.089172 
	C181.942139,112.037781 182.075089,111.928741 182.075089,111.928741 
	C183.384430,113.384727 184.693756,114.840714 186.044556,116.635742 
z" />
	<path fill="#6346CB" opacity="1.000000" stroke="none" d="
M176.019455,108.000031 
	C175.708435,106.873947 175.397415,105.747856 175.060944,104.270584 
	C177.005722,106.031357 178.975998,108.143318 180.949341,110.659851 
	C180.952393,111.064423 180.862091,111.180161 180.550369,111.085762 
	C178.832245,109.994255 177.425858,108.997147 176.019455,108.000031 
z" />
	<path fill="#E1C9F7" opacity="1.000000" stroke="none" d="
M35.969696,136.419250 
	C36.148849,136.158569 36.340355,136.106384 36.826515,136.011322 
	C38.063156,135.815094 39.005138,135.661743 40.105793,135.168686 
	C40.792160,134.999939 41.319851,135.170883 41.785679,135.860901 
	C40.483391,136.911377 39.242970,137.442780 37.818966,137.750854 
	C37.091774,137.366653 36.548157,137.205750 36.004543,137.044846 
	C36.004543,137.044846 35.982044,136.627747 35.969696,136.419250 
z" />
	<path fill="#9B81E8" opacity="1.000000" stroke="none" d="
M86.629700,56.115578 
	C86.982498,56.191242 87.000381,56.563156 87.028351,56.747169 
	C85.744553,56.482906 84.432777,56.034626 83.078979,55.260658 
	C84.116943,55.303288 85.196922,55.671600 86.629700,56.115578 
z" />
	<path fill="#9C7FEE" opacity="1.000000" stroke="none" d="
M34.661610,180.006775 
	C35.044853,180.425797 35.028690,180.837067 34.983704,181.555878 
	C34.004143,181.457764 33.053406,181.052124 31.988283,180.345474 
	C32.669998,180.029327 33.466103,180.014191 34.661610,180.006775 
z" />
	<path fill="#9174D6" opacity="1.000000" stroke="none" d="
M195.940338,156.032303 
	C196.361847,156.021378 196.783356,156.010452 197.520477,156.005569 
	C197.799774,156.618332 197.763458,157.225021 197.148956,157.947998 
	C196.372421,158.063766 196.174057,158.063278 195.967224,157.723450 
	C195.952606,156.933533 195.946472,156.482910 195.940338,156.032303 
z" />
	<path fill="#785AE5" opacity="1.000000" stroke="none" d="
M31.170612,124.246338 
	C31.773022,124.380966 32.342667,124.818176 32.965435,125.540100 
	C32.391655,125.399521 31.764751,124.974228 31.170612,124.246338 
z" />
	<path fill="#9B81E8" opacity="1.000000" stroke="none" d="
M74.063354,48.139076 
	C74.253609,48.229969 73.814560,48.448936 73.814560,48.448936 
	C73.814560,48.448936 73.342438,48.316189 73.190903,48.122925 
	C73.316002,47.978168 73.593910,48.017673 74.063354,48.139076 
z" />
	<path fill="#775DC8" opacity="1.000000" stroke="none" d="
M195.975708,158.062775 
	C196.174057,158.063278 196.372421,158.063766 196.866791,158.088409 
	C197.162811,158.112564 197.016190,158.569702 196.929306,158.793396 
	C196.842422,159.017105 196.388382,158.987854 196.174515,158.750305 
	C195.960648,158.512756 195.975708,158.062775 195.975708,158.062775 
z" />
	<path fill="#6346CB" opacity="1.000000" stroke="none" d="
M180.999054,111.007774 
	C181.328079,111.119461 181.610428,111.287796 181.983932,111.692436 
	C182.075089,111.928741 181.942139,112.037781 181.703598,111.942337 
	C181.242752,111.643936 181.041763,111.421692 180.862091,111.180161 
	C180.862091,111.180161 180.952393,111.064423 180.999054,111.007774 
z" />
	<path fill="#5A3AE2" opacity="1.000000" stroke="none" d="
M144.973709,138.059448 
	C146.439209,138.607162 147.904709,139.154877 149.970932,139.974701 
	C151.376968,140.501862 152.182251,140.756912 152.923676,141.349121 
	C152.579178,142.083542 152.385620,142.619827 152.005341,142.858078 
	C136.904816,152.318634 121.712860,161.635910 106.711395,171.250488 
	C101.255592,174.747162 96.248787,178.944397 90.679138,182.861511 
	C89.840385,182.933456 89.359619,182.965912 88.441818,183.003067 
	C85.661049,182.953400 83.317337,182.899033 81.035736,182.507355 
	C83.206230,180.451584 85.165474,178.497879 87.446609,177.052002 
	C105.309654,165.729630 123.268509,154.557907 141.084854,143.163116 
	C142.777023,142.080856 143.695862,139.789505 144.973709,138.059448 
z" />
	<path fill="#6445E4" opacity="1.000000" stroke="none" d="
M144.591507,138.032547 
	C143.695862,139.789505 142.777023,142.080856 141.084854,143.163116 
	C123.268509,154.557907 105.309654,165.729630 87.446609,177.052002 
	C85.165474,178.497879 83.206230,180.451584 80.590179,182.554321 
	C77.384575,182.900116 74.686638,182.861633 72.046265,182.491119 
	C73.525719,180.566193 74.673653,178.535217 76.411880,177.448151 
	C93.746773,166.607208 111.223175,155.992401 128.548462,145.136368 
	C132.253601,142.814728 135.510300,139.777435 138.973587,137.069839 
	C140.718826,137.381760 142.464066,137.693695 144.591507,138.032547 
z" />
	<path fill="#6E4FE6" opacity="1.000000" stroke="none" d="
M138.533279,137.046127 
	C135.510300,139.777435 132.253601,142.814728 128.548462,145.136368 
	C111.223175,155.992401 93.746773,166.607208 76.411880,177.448151 
	C74.673653,178.535217 73.525719,180.566193 71.595222,182.539124 
	C68.058914,182.895767 65.031204,182.872360 62.059418,182.514282 
	C63.705803,180.806519 65.158401,179.219315 66.907738,178.092941 
	C88.251617,164.349930 109.639061,150.674576 131.015213,136.981674 
	C133.374466,136.995255 135.733719,137.008835 138.533279,137.046127 
z" />
	<path fill="#8A6CEA" opacity="1.000000" stroke="none" d="
M44.086777,181.667786 
	C42.269135,181.690567 40.534328,181.358093 38.418518,181.005539 
	C44.295761,176.686584 50.470753,172.259964 56.829857,168.115845 
	C69.456650,159.887238 82.184898,151.814301 95.302277,143.332123 
	C97.829552,140.958511 99.925751,138.929810 102.021950,136.901093 
	C104.377052,136.885040 106.732155,136.869003 109.649399,137.099426 
	C110.479553,137.563797 110.747559,137.781677 111.015564,137.999573 
	C109.440414,139.609940 108.102951,141.592651 106.253464,142.773239 
	C87.167366,154.956314 68.005775,167.021301 48.838295,179.076385 
	C47.387257,179.988998 45.730667,180.574799 44.086777,181.667786 
z" />
	<path fill="#7758E7" opacity="1.000000" stroke="none" d="
M130.612732,136.966736 
	C109.639061,150.674576 88.251617,164.349930 66.907738,178.092941 
	C65.158401,179.219315 63.705803,180.806519 61.616432,182.555267 
	C58.748379,182.909073 56.379227,182.887207 54.010071,182.865326 
	C60.675480,178.076416 67.166855,173.019470 74.042770,168.554749 
	C88.076065,159.442520 102.330574,150.671417 116.442169,141.678528 
	C117.477669,141.018631 118.096611,139.705093 119.384537,138.349182 
	C122.237625,137.672272 124.615410,137.341644 126.993187,137.011032 
	C128.065536,136.991302 129.137894,136.971558 130.612732,136.966736 
z" />
	<path fill="#4D2BE1" opacity="1.000000" stroke="none" d="
M47.299114,130.290009 
	C50.128159,129.528168 53.265614,129.033279 57.118309,128.270508 
	C59.222313,128.002975 60.611080,128.003311 62.312927,128.276917 
	C68.750969,128.366165 74.875923,128.182190 81.454742,127.998306 
	C88.818604,127.665344 95.728676,127.333572 102.638603,126.998810 
	C109.218491,126.680038 115.796593,126.159988 122.378593,126.105858 
	C126.915619,126.068550 131.457947,126.674400 135.997894,126.992798 
	C132.154999,127.661278 128.330872,128.755844 124.466026,128.926086 
	C105.550682,129.759171 86.627235,130.446304 67.700638,130.965805 
	C61.011711,131.149414 54.305725,130.711273 47.299114,130.290009 
z" />
	<path fill="#4D2BE1" opacity="1.000000" stroke="none" d="
M170.979706,118.023926 
	C171.801880,118.923820 172.624054,119.823723 173.707672,121.233238 
	C173.088226,122.373070 172.242279,123.484261 171.320435,123.551262 
	C167.052353,123.861511 162.739517,123.668053 158.496155,124.137718 
	C157.243744,124.276352 156.166214,125.994919 155.008545,126.989449 
	C149.623001,126.993561 144.237457,126.997673 138.535065,126.617310 
	C141.903351,125.579185 145.588486,124.925529 149.273621,124.271873 
	C149.351517,123.823174 149.429428,123.374481 149.507324,122.925781 
	C146.006424,122.282883 142.505524,121.639984 139.004623,120.997086 
	C137.868286,120.419739 136.731949,119.842400 135.383972,118.771988 
	C140.867905,118.379753 146.572418,118.720238 152.256393,118.508850 
	C157.185654,118.325531 162.091644,117.516945 167.349426,117.028427 
	C168.787186,117.389404 169.883438,117.706665 170.979706,118.023926 
z" />
	<path fill="#5433E2" opacity="1.000000" stroke="none" d="
M138.795441,121.332886 
	C142.505524,121.639984 146.006424,122.282883 149.507324,122.925781 
	C149.429428,123.374481 149.351517,123.823174 149.273621,124.271873 
	C145.588486,124.925529 141.903351,125.579185 138.107559,126.613647 
	C137.552719,126.995201 137.108521,126.995949 136.331116,126.994751 
	C131.457947,126.674400 126.915619,126.068550 122.378593,126.105858 
	C115.796593,126.159988 109.218491,126.680038 102.638603,126.998810 
	C95.728676,127.333572 88.818604,127.665344 81.332687,127.787788 
	C80.551933,127.315292 80.296532,127.119308 79.990570,126.989227 
	C80.807983,126.335892 81.583496,125.182404 82.449577,125.109833 
	C88.375481,124.613327 94.316559,124.235992 100.260010,124.023766 
	C111.840637,123.610252 123.427361,123.366020 135.007492,122.941299 
	C136.214355,122.897034 137.393982,122.110710 138.795441,121.332886 
z" />
	<path fill="#5733E4" opacity="1.000000" stroke="none" d="
M155.327393,127.140640 
	C156.166214,125.994919 157.243744,124.276352 158.496155,124.137718 
	C162.739517,123.668053 167.052353,123.861511 171.320435,123.551262 
	C172.242279,123.484261 173.088226,122.373070 173.981110,121.375244 
	C175.794678,122.903526 177.596252,124.799408 179.836548,127.168304 
	C180.525208,128.759735 180.775146,129.878143 180.611359,130.997681 
	C175.126541,131.337677 170.055450,131.676529 164.984360,132.015381 
	C161.871643,130.440872 158.758942,128.866348 155.327393,127.140640 
z" />
	<path fill="#5E3AE6" opacity="1.000000" stroke="none" d="
M165.130737,132.292892 
	C170.055450,131.676529 175.126541,131.337677 180.933640,131.061584 
	C182.776367,132.416656 183.883102,133.708939 184.994019,135.333740 
	C185.002090,136.109695 185.005966,136.553101 184.808746,137.322083 
	C182.150055,137.957443 179.673431,138.164673 177.242004,138.615540 
	C175.786041,138.885513 174.400772,139.536636 172.730713,139.899658 
	C171.986954,139.520477 171.496231,139.258102 170.863617,138.721924 
	C169.824249,137.624237 168.926727,136.800308 168.029221,135.976395 
	C167.111847,134.841064 166.194489,133.705734 165.130737,132.292892 
z" />
	<path fill="#CEB4F8" opacity="1.000000" stroke="none" d="
M38.002544,137.974167 
	C39.242970,137.442780 40.483391,136.911377 41.926571,136.104263 
	C42.129326,135.828537 42.574928,135.923996 43.023666,136.217651 
	C44.316788,136.681732 45.161171,136.852173 46.005554,137.022629 
	C36.033905,143.664688 26.106405,150.375137 16.041054,156.872025 
	C14.598567,157.803131 12.490290,157.702774 10.347008,158.034576 
	C10.791108,157.027527 11.578332,156.065689 13.035816,155.001785 
	C18.012236,152.475006 22.529644,150.353348 26.565327,147.540558 
	C30.627111,144.709564 34.209881,141.191284 38.002544,137.974167 
z" />
	<path fill="#4724E0" opacity="1.000000" stroke="none" d="
M167.813141,136.203369 
	C168.926727,136.800308 169.824249,137.624237 170.752701,139.103363 
	C164.851608,140.176361 158.919586,140.594162 152.987549,141.011963 
	C152.182251,140.756912 151.376968,140.501862 150.281189,140.109497 
	C150.984833,138.984756 151.903275,137.248230 152.986130,137.138809 
	C157.830841,136.649307 162.722427,136.623535 167.813141,136.203369 
z" />
	<path fill="#9073ED" opacity="1.000000" stroke="none" d="
M101.576965,136.872803 
	C99.925751,138.929810 97.829552,140.958511 95.369171,142.995453 
	C94.049744,142.561813 93.094498,142.119965 92.069946,141.343628 
	C92.128204,140.701172 92.324051,140.445541 93.077728,140.082001 
	C93.716347,139.283752 93.865456,138.645737 94.014557,138.007721 
	C94.015076,137.820404 94.015602,137.633072 94.021271,137.163910 
	C96.394928,136.869583 98.763451,136.857040 101.576965,136.872803 
z" />
	<path fill="#7F60E9" opacity="1.000000" stroke="none" d="
M126.551529,136.985718 
	C124.615410,137.341644 122.237625,137.672272 119.432213,138.003906 
	C116.636559,138.003036 114.268547,138.001175 111.458046,137.999451 
	C110.747559,137.781677 110.479553,137.563797 110.090363,137.112823 
	C115.349419,136.906616 120.729645,136.933502 126.551529,136.985718 
z" />
	<path fill="#7F60E9" opacity="1.000000" stroke="none" d="
M46.420002,136.986420 
	C45.161171,136.852173 44.316788,136.681732 43.241051,136.285919 
	C49.398487,136.075592 55.787277,136.090652 62.641640,136.218460 
	C62.283894,136.552658 61.460579,136.774109 60.310772,137.035706 
	C57.286171,137.040298 54.588062,137.004715 51.440842,137.009567 
	C49.605968,137.016724 48.220211,136.983459 46.420002,136.986420 
z" />
	<path fill="#7766B6" opacity="1.000000" stroke="none" d="
M53.620346,182.900940 
	C56.379227,182.887207 58.748379,182.909073 61.560516,182.889954 
	C65.031204,182.872360 68.058914,182.895767 71.537659,182.871155 
	C74.686638,182.861633 77.384575,182.900116 80.528061,182.891647 
	C83.317337,182.899033 85.661049,182.953400 88.486343,183.220612 
	C88.967918,183.433472 89.040932,183.870941 89.040932,183.870941 
	C75.679810,183.853943 62.318687,183.836945 48.492371,183.747162 
	C49.761658,183.428436 51.496140,183.182495 53.620346,182.900940 
z" />
	<path fill="#6445E4" opacity="1.000000" stroke="none" d="
M37.308556,123.269836 
	C40.981529,122.332466 44.930836,121.381294 48.930744,121.059906 
	C57.407253,120.378822 65.910141,120.026108 75.034637,119.270203 
	C76.111496,119.001686 76.555923,119.001717 77.246117,119.250427 
	C78.994423,119.331932 80.496956,119.164734 82.332985,118.997734 
	C83.111122,118.997635 83.555771,118.997337 84.245697,119.246590 
	C85.993752,119.328949 87.496529,119.161766 89.373962,118.995209 
	C90.497910,118.995293 91.247215,118.994743 92.465553,118.996445 
	C100.423347,118.998444 107.928421,119.286476 115.393272,118.863968 
	C118.632362,118.680641 121.788651,117.034592 125.313614,116.043205 
	C126.085777,116.038933 126.526863,116.044373 127.178101,116.299454 
	C128.591492,117.035080 129.794739,117.521072 130.997986,118.007065 
	C127.084091,119.003830 123.205704,120.672707 119.250183,120.881729 
	C101.530418,121.818130 83.790672,122.398712 66.054085,122.985397 
	C56.576237,123.298897 47.090168,123.364113 37.308556,123.269836 
z" />
	<path fill="#4A27E1" opacity="1.000000" stroke="none" d="
M131.318451,118.143021 
	C129.794739,117.521072 128.591492,117.035080 127.490219,116.015244 
	C136.662155,115.321037 145.734116,115.228004 154.800873,114.959732 
	C157.559814,114.878090 160.304459,114.313316 163.413132,113.979416 
	C164.849716,114.987572 165.928818,115.986145 167.007919,116.984711 
	C162.091644,117.516945 157.185654,118.325531 152.256393,118.508850 
	C146.572418,118.720238 140.867905,118.379753 135.085480,118.634033 
	C133.878738,118.752426 132.758820,118.515701 131.318451,118.143021 
z" />
	<path fill="#502EE0" opacity="1.000000" stroke="none" d="
M79.660309,126.990425 
	C80.296532,127.119308 80.551933,127.315292 80.878830,127.787674 
	C74.875923,128.182190 68.750969,128.366165 62.313004,128.025421 
	C61.999954,127.333054 61.999916,127.165428 61.999882,126.997810 
	C65.359306,126.996727 68.718735,126.995636 72.953804,126.996445 
	C75.222565,126.996010 76.615669,126.993675 78.008781,126.991341 
	C78.449211,126.991432 78.889633,126.991531 79.660309,126.990425 
z" />
	<path fill="#5433E2" opacity="1.000000" stroke="none" d="
M77.921814,126.643478 
	C76.615669,126.993675 75.222565,126.996010 73.411469,126.996124 
	C74.231010,124.152534 75.898315,124.290794 77.921814,126.643478 
z" />
	<path fill="#5433E2" opacity="1.000000" stroke="none" d="
M61.773109,126.755676 
	C61.999916,127.165428 61.999954,127.333054 61.999920,127.752174 
	C60.611080,128.003311 59.222313,128.002975 57.416924,128.003754 
	C57.000183,127.837479 57.000061,127.670074 56.999741,127.251572 
	C58.515141,126.838158 60.030735,126.675850 61.773109,126.755676 
z" />
	<path fill="#9276EB" opacity="1.000000" stroke="none" d="
M93.781921,138.185883 
	C93.865456,138.645737 93.716347,139.283752 93.289116,139.960785 
	C93.190414,139.454544 93.369843,138.909286 93.781921,138.185883 
z" />
	<path fill="#4724E0" opacity="1.000000" stroke="none" d="
M150.008484,76.000336 
	C151.585037,77.790833 153.161606,79.581329 154.881287,81.669891 
	C153.154831,82.638145 151.199127,84.053551 149.430618,83.849190 
	C141.870468,82.975533 134.372925,81.572754 126.834892,80.485237 
	C125.110039,80.236382 123.315125,80.473160 121.269714,80.753929 
	C120.820305,81.020271 120.653633,81.019112 120.236900,81.024811 
	C118.550957,80.438675 117.115074,79.845680 115.375343,79.122498 
	C113.469170,77.216209 111.866844,75.440109 110.363144,73.126808 
	C121.051117,74.007454 131.627197,75.541084 142.239517,76.758499 
	C144.766937,77.048424 147.415588,76.281273 150.008484,76.000336 
z" />
	<path fill="#5333E1" opacity="1.000000" stroke="none" d="
M63.981632,90.008011 
	C63.314819,88.913483 62.648006,87.818954 61.956551,86.383575 
	C79.735619,86.456635 97.539268,86.872826 115.343079,87.282623 
	C119.057709,87.368126 122.772896,87.430031 126.748138,87.249069 
	C127.008453,86.995323 127.504532,86.997063 127.752579,86.998077 
	C128.642136,88.118324 129.283661,89.237556 129.499176,90.679871 
	C125.048820,91.002823 121.024460,91.002701 116.726303,90.743439 
	C114.301727,90.656403 112.150955,90.828506 109.531509,91.000595 
	C94.035774,90.669731 79.008705,90.338867 63.981632,90.008011 
z" />
	<path fill="#4120DE" opacity="1.000000" stroke="none" d="
M150.001740,75.651329 
	C147.415588,76.281273 144.766937,77.048424 142.239517,76.758499 
	C131.627197,75.541084 121.051117,74.007454 110.199287,72.846291 
	C109.511833,73.064735 109.086868,73.026497 108.342133,72.969070 
	C106.296364,71.648285 104.570351,70.346687 102.526199,68.988686 
	C101.547134,68.170105 100.886208,67.407928 100.355469,66.100220 
	C105.947754,66.189110 111.429001,66.692680 116.867523,67.488297 
	C125.282997,68.719421 133.664169,70.185028 142.079361,71.418221 
	C142.647751,71.501518 143.379456,70.470459 144.035202,69.957680 
	C145.736023,70.970413 147.436844,71.983139 149.443085,73.117767 
	C149.830658,73.927216 149.912827,74.614769 150.001740,75.651329 
z" />
	<path fill="#492AE0" opacity="1.000000" stroke="none" d="
M117.000099,91.002579 
	C121.024460,91.002701 125.048820,91.002823 129.536316,91.003609 
	C131.497864,91.836349 132.996262,92.668427 134.433441,94.025726 
	C126.255600,94.633858 118.137512,94.856033 110.022720,94.769234 
	C95.339951,94.612198 80.659157,94.270821 65.977539,94.006409 
	C65.315811,92.919838 64.654076,91.833267 63.986992,90.377350 
	C79.008705,90.338867 94.035774,90.669731 109.805679,91.259018 
	C112.699051,91.345825 114.849571,91.174202 117.000099,91.002579 
z" />
	<path fill="#4525DE" opacity="1.000000" stroke="none" d="
M66.070236,94.363937 
	C80.659157,94.270821 95.339951,94.612198 110.022720,94.769234 
	C118.137512,94.856033 126.255600,94.633858 134.685455,94.277840 
	C136.291916,94.779320 137.585114,95.553925 138.662506,96.923897 
	C136.630386,97.680534 134.814072,97.841797 132.665161,98.002815 
	C131.889099,98.002914 131.445618,98.003250 130.619720,97.834534 
	C129.112457,97.444847 127.994743,97.083855 126.861626,97.026352 
	C119.447105,96.650162 112.030281,96.113556 104.612152,96.079590 
	C98.743034,96.052704 92.870956,96.669205 86.600143,96.999832 
	C85.133263,96.999496 84.066437,96.999321 82.803513,96.768394 
	C81.738449,96.691544 80.869492,96.845436 79.667038,96.999329 
	C78.888908,96.999275 78.444252,96.999222 77.770859,96.750595 
	C75.347641,96.339645 73.153183,96.177261 70.958717,96.014885 
	C69.360123,95.583748 67.761528,95.152603 66.070236,94.363937 
z" />
	<path fill="#4120DE" opacity="1.000000" stroke="none" d="
M132.997742,98.003052 
	C134.814072,97.841797 136.630386,97.680534 138.725922,97.254807 
	C140.108612,97.298012 141.212097,97.605682 142.658722,97.954102 
	C143.001862,97.994850 143.008591,98.487190 142.710815,99.005905 
	C139.189117,99.546387 135.589676,101.891853 132.997742,98.003052 
z" />
	<path fill="#3D1CDC" opacity="1.000000" stroke="none" d="
M132.665161,98.002815 
	C135.589676,101.891853 139.189117,99.546387 142.713196,99.252090 
	C146.572784,101.448959 150.132187,103.918358 153.585815,106.944473 
	C147.940628,107.485733 142.393677,107.646835 136.863708,107.410545 
	C129.811646,107.109222 122.767387,106.073532 115.731529,106.174446 
	C112.134750,106.226036 108.563622,108.065971 104.593262,109.035446 
	C102.129601,108.680939 100.053596,108.388596 97.977585,108.096260 
	C95.220833,107.126945 92.464081,106.157623 89.198364,104.732704 
	C86.785461,103.573242 84.881516,102.869385 82.977570,102.165535 
	C81.943993,102.109688 80.910408,102.053841 79.489525,101.983131 
	C77.830887,101.173271 76.559547,100.378273 75.395370,99.180977 
	C76.334892,98.185509 77.167252,97.592339 77.999603,96.999161 
	C78.444252,96.999222 78.888908,96.999275 79.863022,97.230339 
	C81.261520,97.307274 82.130569,97.153206 82.999611,96.999138 
	C84.066437,96.999321 85.133263,96.999496 86.788498,97.316040 
	C88.551636,98.074730 89.715637,98.869011 90.902718,98.905136 
	C103.302971,99.282578 115.706367,99.579971 128.110947,99.746246 
	C129.066711,99.759064 130.038040,98.611694 131.002151,98.003586 
	C131.445618,98.003250 131.889099,98.002914 132.665161,98.002815 
z" />
	<path fill="#4120DE" opacity="1.000000" stroke="none" d="
M104.980904,109.097610 
	C108.563622,108.065971 112.134750,106.226036 115.731529,106.174446 
	C122.767387,106.073532 129.811646,107.109222 136.863708,107.410545 
	C142.393677,107.646835 147.940628,107.485733 153.757141,107.233772 
	C154.465866,106.978790 154.897476,106.991211 155.805817,107.276306 
	C157.188583,108.365761 158.094589,109.182526 158.733017,110.267899 
	C156.557816,111.022774 154.627228,111.999367 152.746536,111.911224 
	C144.178787,111.509682 135.632568,110.578529 127.063568,110.299767 
	C121.715034,110.125778 116.339767,110.773849 110.642105,111.046638 
	C109.861626,111.041405 109.415535,111.042549 108.651352,110.972313 
	C107.215813,110.299828 106.098358,109.698723 104.980904,109.097610 
z" />
	<path fill="#5E3AE6" opacity="1.000000" stroke="none" d="
M159.000610,109.999290 
	C158.094589,109.182526 157.188583,108.365761 156.130005,107.279099 
	C161.253220,107.152130 166.529938,107.268639 171.803986,107.459129 
	C172.929291,107.499779 174.044891,107.809273 175.592209,107.997467 
	C177.425858,108.997147 178.832245,109.994255 180.550369,111.085762 
	C181.041763,111.421692 181.242752,111.643936 181.634689,111.993729 
	C181.250656,113.536812 180.697006,114.933067 180.080215,116.662064 
	C177.068985,117.095947 174.120880,117.197083 171.076233,117.661072 
	C169.883438,117.706665 168.787186,117.389404 167.349426,117.028427 
	C165.928818,115.986145 164.849716,114.987572 163.254395,113.702454 
	C161.492310,112.277046 160.246460,111.138168 159.000610,109.999290 
z" />
	<path fill="#492AE0" opacity="1.000000" stroke="none" d="
M90.354279,48.963486 
	C90.277344,46.883720 90.578041,44.820236 90.945282,42.370689 
	C102.739319,43.981266 114.466812,45.977898 126.600937,47.987106 
	C127.922791,49.455822 128.838028,50.911964 129.450272,52.681267 
	C120.571632,51.764584 112.009506,50.425674 103.413643,49.358612 
	C99.979858,48.932354 96.471634,49.105827 92.997292,49.006298 
	C92.242165,48.997452 91.487038,48.988605 90.354279,48.963486 
z" />
	<path fill="#3C1BDD" opacity="1.000000" stroke="none" d="
M144.021149,69.591492 
	C143.379456,70.470459 142.647751,71.501518 142.079361,71.418221 
	C133.664169,70.185028 125.282997,68.719421 116.867523,67.488297 
	C111.429001,66.692680 105.947754,66.189110 100.198639,65.842468 
	C98.468513,65.204689 97.025406,64.279114 95.279861,63.239677 
	C94.400581,62.629040 93.823730,62.132259 93.099854,61.393707 
	C92.308701,59.072510 91.472641,57.025486 91.113510,54.897961 
	C90.966904,54.029495 91.853638,52.986595 93.018997,52.065620 
	C101.995483,53.621227 110.205696,55.239765 118.456947,56.611439 
	C124.274475,57.578537 130.147705,58.210491 135.996078,58.992077 
	C136.751083,59.313629 137.506073,59.635185 138.558380,60.028744 
	C139.684494,61.701187 140.470520,63.325748 141.354599,64.895050 
	C142.184875,66.368835 143.118774,67.784233 144.021149,69.591492 
z" />
	<path fill="#7F61E9" opacity="1.000000" stroke="none" d="
M104.593262,109.035446 
	C106.098358,109.698723 107.215813,110.299828 108.362488,111.231590 
	C105.461555,112.039383 102.544502,112.815483 99.599106,112.944519 
	C82.052269,113.713257 64.497078,114.292473 46.951252,115.081169 
	C45.607018,115.141594 44.313354,116.327141 42.622116,116.991974 
	C41.499870,116.992126 40.751701,116.990013 40.003529,116.987900 
	C38.026440,116.379753 36.069736,115.689163 34.064846,115.193466 
	C32.802284,114.881302 31.467566,114.860970 30.082060,114.358902 
	C31.892887,113.672165 33.778187,113.108047 35.682194,113.035599 
	C54.824432,112.307274 73.971733,111.707039 93.110535,110.902451 
	C94.702728,110.835526 96.243362,109.541931 97.892776,108.457260 
	C100.053596,108.388596 102.129601,108.680939 104.593262,109.035446 
z" />
	<path fill="#9073ED" opacity="1.000000" stroke="none" d="
M82.957123,102.556107 
	C84.881516,102.869385 86.785461,103.573242 88.874649,104.568184 
	C86.997070,106.207672 84.997734,108.608093 82.861313,108.737030 
	C66.640060,109.716019 50.393223,110.284691 34.150475,110.874443 
	C32.383381,110.938606 30.591669,110.324776 28.403337,110.010086 
	C31.915762,108.997078 35.795898,107.380241 39.764503,107.121765 
	C50.247124,106.439049 60.770214,106.398766 71.272438,105.982605 
	C74.225342,105.865585 77.189766,105.477348 80.090836,104.914330 
	C81.127693,104.713112 81.993042,103.628227 82.957123,102.556107 
z" />
	<path fill="#4120DE" opacity="1.000000" stroke="none" d="
M77.770859,96.750595 
	C77.167252,97.592339 76.334892,98.185509 75.216415,98.907051 
	C74.140526,99.016609 73.350746,98.997803 72.088364,98.976143 
	C71.615761,98.973297 71.456581,98.992249 71.456581,98.992249 
	C71.369255,98.839279 71.281929,98.686317 71.061203,98.304993 
	C70.942436,97.618385 70.957077,97.160156 70.965218,96.358398 
	C73.153183,96.177261 75.347641,96.339645 77.770859,96.750595 
z" />
	<path fill="#4A31C0" opacity="1.000000" stroke="none" d="
M71.417145,99.124298 
	C71.456581,98.992249 71.615761,98.973297 71.693306,98.964996 
	C71.770851,98.956696 71.670815,99.336418 71.670815,99.336418 
	C71.670815,99.336418 71.377716,99.256340 71.417145,99.124298 
z" />
	<path fill="#D3B8F7" opacity="1.000000" stroke="none" d="
M37.818966,137.750854 
	C34.209881,141.191284 30.627111,144.709564 26.565327,147.540558 
	C22.529644,150.353348 18.012236,152.475006 13.351222,154.947723 
	C16.447189,152.104477 19.786480,149.065033 23.378448,146.361313 
	C27.422997,143.316895 31.695269,140.574997 35.936516,137.373169 
	C36.548157,137.205750 37.091774,137.366653 37.818966,137.750854 
z" />
	<path fill="#6C47E8" opacity="1.000000" stroke="none" d="
M184.989838,135.001221 
	C183.883102,133.708939 182.776367,132.416656 181.347382,131.060455 
	C180.775146,129.878143 180.525208,128.759735 180.128754,127.325142 
	C181.826752,127.010887 183.676743,127.100227 185.513931,126.985222 
	C186.821213,126.903374 188.111267,126.546326 189.705078,126.160156 
	C191.327805,129.082260 192.654465,132.156311 193.578888,135.614807 
	C190.447708,135.666550 187.718781,135.333893 184.989838,135.001221 
z" />
	<path fill="#785AE5" opacity="1.000000" stroke="none" d="
M42.996185,116.989716 
	C44.313354,116.327141 45.607018,115.141594 46.951252,115.081169 
	C64.497078,114.292473 82.052269,113.713257 99.599106,112.944519 
	C102.544502,112.815483 105.461555,112.039383 108.680573,111.302971 
	C109.415535,111.042549 109.861626,111.041405 110.847214,111.274490 
	C112.274742,111.985886 113.162781,112.463051 113.771851,113.215210 
	C109.124321,113.993660 104.735870,114.372917 100.397896,115.067436 
	C98.865807,115.312729 97.457016,116.328087 95.618835,116.992142 
	C94.499802,116.991577 93.753868,116.990730 92.913254,116.627892 
	C92.157280,115.878662 91.480347,115.129745 90.836998,115.157562 
	C77.859848,115.718712 64.883492,116.316818 51.917122,117.079987 
	C50.575321,117.158958 49.297611,118.326950 47.990166,118.989639 
	C46.606434,118.991241 45.222706,118.992844 43.421349,118.659760 
	C43.001213,117.879951 42.998699,117.434830 42.996185,116.989716 
z" />
	<path fill="#7052E8" opacity="1.000000" stroke="none" d="
M48.459518,118.993469 
	C49.297611,118.326950 50.575321,117.158958 51.917122,117.079987 
	C64.883492,116.316818 77.859848,115.718712 90.836998,115.157562 
	C91.480347,115.129745 92.157280,115.878662 92.682861,116.810822 
	C92.363594,117.901894 92.180054,118.448051 91.996513,118.994202 
	C91.247215,118.994743 90.497910,118.995293 89.128029,118.747131 
	C87.005104,118.664627 85.502762,118.830833 84.000420,118.997040 
	C83.555771,118.997337 83.111122,118.997635 82.087189,118.749191 
	C80.005386,118.667542 78.502869,118.834641 77.000351,119.001740 
	C76.555923,119.001717 76.111496,119.001686 75.333755,119.001923 
	C73.097359,118.680580 71.186142,118.044823 69.292648,118.093864 
	C62.501476,118.269753 55.716305,118.677322 48.459518,118.993469 
z" />
	<path fill="#7052E8" opacity="1.000000" stroke="none" d="
M42.622116,116.991974 
	C42.998699,117.434830 43.001213,117.879951 43.006229,118.658630 
	C41.808857,119.142662 40.608986,119.293121 39.203239,119.219742 
	C39.179684,118.449181 39.362007,117.902458 39.773926,117.171814 
	C40.751701,116.990013 41.499870,116.992126 42.622116,116.991974 
z" />
	<path fill="#4B35A4" opacity="1.000000" stroke="none" d="
M89.408775,183.911652 
	C89.040932,183.870941 88.967918,183.433472 88.923386,183.215927 
	C89.359619,182.965912 89.840385,182.933456 91.123856,182.910355 
	C94.624481,182.881744 97.322403,182.843781 100.465561,182.856644 
	C103.609474,182.871399 106.308151,182.835327 109.472916,182.842499 
	C116.960991,182.857590 123.982964,182.829437 131.467072,182.852386 
	C136.283661,182.875198 140.638107,182.846909 145.445572,182.867615 
	C148.934723,182.936523 151.970856,182.956406 155.002563,183.192444 
	C154.998154,183.408615 154.987671,183.840912 154.987671,183.840912 
	C134.295486,183.887527 113.603302,183.934158 92.447296,184.061066 
	C91.247856,184.078339 90.512238,184.015350 89.408775,183.911652 
z" />
	<path fill="#5842BB" opacity="1.000000" stroke="none" d="
M155.451447,183.916901 
	C154.987671,183.840912 154.998154,183.408615 155.445602,183.185760 
	C158.256943,182.926132 160.620819,182.889374 163.450562,182.882690 
	C169.212036,182.631683 174.507645,182.350632 179.803253,182.069580 
	C179.862091,182.464264 179.920944,182.858932 179.993103,183.552185 
	C171.976013,183.898148 163.945602,183.945511 155.451447,183.916901 
z" />
	<path fill="#7D55ED" opacity="1.000000" stroke="none" d="
M195.957214,144.998077 
	C195.750854,148.082123 195.544510,151.166168 194.768494,154.626099 
	C190.930405,154.968857 188.988617,156.052231 188.795380,159.835251 
	C188.728058,161.152908 186.761658,162.411194 185.587616,163.624039 
	C184.426163,164.823853 183.270538,166.071930 181.925171,167.038239 
	C180.752228,167.880722 179.318497,168.360153 177.843796,168.694458 
	C177.423340,167.289032 177.159103,166.189117 177.123962,164.817047 
	C179.323380,162.783401 183.925644,162.484558 180.992279,157.664307 
	C180.991547,156.886734 180.990189,156.442398 181.388092,155.939941 
	C189.846344,153.659729 190.216660,153.131500 188.009415,146.628326 
	C188.005829,145.502670 188.004395,144.752243 188.381165,144.000412 
	C191.158646,144.332031 193.557922,144.665054 195.957214,144.998077 
z" />
	<path fill="#875EF0" opacity="1.000000" stroke="none" d="
M178.000000,169.000000 
	C179.318497,168.360153 180.752228,167.880722 181.925171,167.038239 
	C183.270538,166.071930 184.426163,164.823853 185.587616,163.624039 
	C186.761658,162.411194 188.728058,161.152908 188.795380,159.835251 
	C188.988617,156.052231 190.930405,154.968857 194.603699,154.997955 
	C195.128403,155.293442 195.309296,155.549881 195.745804,155.897766 
	C195.946472,156.482910 195.952606,156.933533 195.967224,157.723450 
	C195.975708,158.062775 195.960648,158.512756 195.947418,158.737122 
	C193.962402,162.386261 191.990646,165.811050 190.016846,169.626556 
	C186.832367,171.880722 183.649933,173.744171 179.955505,175.554367 
	C178.960571,174.001144 178.477661,172.501175 177.997238,170.667664 
	C177.999817,169.889404 177.999908,169.444702 178.000000,169.000000 
z" />
	<path fill="#744DEC" opacity="1.000000" stroke="none" d="
M195.969696,144.595490 
	C193.557922,144.665054 191.158646,144.332031 188.234482,143.677261 
	C186.809677,141.235870 185.909760,139.116196 185.009857,136.996521 
	C185.005966,136.553101 185.002090,136.109695 184.994019,135.333740 
	C187.718781,135.333893 190.447708,135.666550 193.589569,136.004791 
	C194.662384,138.737885 195.322281,141.465378 195.969696,144.595490 
z" />
	<path fill="#5C37E0" opacity="1.000000" stroke="none" d="
M177.994751,171.001221 
	C178.477661,172.501175 178.960571,174.001144 179.672852,175.759506 
	C179.908142,177.746628 179.914062,179.475342 179.861603,181.636826 
	C174.507645,182.350632 169.212036,182.631683 163.464539,182.530579 
	C166.117172,175.893173 172.573700,174.143051 177.994751,171.001221 
z" />
	<path fill="#4323DE" opacity="1.000000" stroke="none" d="
M135.858185,58.684479 
	C130.147705,58.210491 124.274475,57.578537 118.456947,56.611439 
	C110.205696,55.239765 101.995483,53.621227 93.378395,52.050865 
	C92.991798,51.246708 92.994545,50.499866 92.997284,49.379662 
	C96.471634,49.105827 99.979858,48.932354 103.413643,49.358612 
	C112.009506,50.425674 120.571632,51.764584 129.592148,52.987717 
	C131.931427,54.779629 133.825851,56.578255 135.858185,58.684479 
z" />
	<path fill="#4F2FE1" opacity="1.000000" stroke="none" d="
M100.020325,182.805817 
	C97.322403,182.843781 94.624481,182.881744 91.481842,182.870850 
	C96.248787,178.944397 101.255592,174.747162 106.711395,171.250488 
	C121.712860,161.635910 136.904816,152.318634 152.005341,142.858078 
	C152.385620,142.619827 152.579178,142.083542 152.923676,141.349121 
	C158.919586,140.594162 164.851608,140.176361 170.894562,139.377136 
	C171.496231,139.258102 171.986954,139.520477 172.781754,140.238235 
	C174.050232,142.460205 175.014648,144.226807 175.546387,145.995529 
	C173.300079,145.975388 171.375778,146.332794 169.698334,145.843628 
	C167.050949,145.071625 165.208862,145.479996 163.738434,148.009933 
	C163.491867,148.008728 162.998749,148.001709 162.830826,147.691437 
	C160.113251,143.748001 157.403702,145.101227 154.499863,146.972565 
	C143.359528,154.151749 132.111465,161.164993 121.016983,168.413681 
	C113.915260,173.053650 107.012360,177.997940 100.020325,182.805817 
z" />
	<path fill="#6942E9" opacity="1.000000" stroke="none" d="
M175.979065,145.993408 
	C175.014648,144.226807 174.050232,142.460205 173.034760,140.355011 
	C174.400772,139.536636 175.786041,138.885513 177.242004,138.615540 
	C179.673431,138.164673 182.150055,137.957443 184.808746,137.322083 
	C185.909760,139.116196 186.809677,141.235870 187.856277,143.678680 
	C188.004395,144.752243 188.005829,145.502670 187.590927,146.629318 
	C184.115585,147.336868 181.056580,147.668198 177.763550,147.832825 
	C177.012726,147.108566 176.495895,146.550995 175.979065,145.993408 
z" />
	<path fill="#4524DF" opacity="1.000000" stroke="none" d="
M114.050819,112.940208 
	C113.162781,112.463051 112.274742,111.985886 111.181595,111.280869 
	C116.339767,110.773849 121.715034,110.125778 127.063568,110.299767 
	C135.632568,110.578529 144.178787,111.509682 152.746536,111.911224 
	C154.627228,111.999367 156.557816,111.022774 158.733017,110.267899 
	C160.246460,111.138168 161.492310,112.277046 162.896912,113.692871 
	C160.304459,114.313316 157.559814,114.878090 154.800873,114.959732 
	C145.734116,115.228004 136.662155,115.321037 127.280067,115.765610 
	C126.526863,116.044373 126.085777,116.038933 124.936050,116.007683 
	C122.500008,115.635452 120.772598,115.289024 118.817841,114.684311 
	C117.077263,113.930748 115.564041,113.435478 114.050819,112.940208 
z" />
	<path fill="#6B4CE4" opacity="1.000000" stroke="none" d="
M119.045197,114.942596 
	C120.772598,115.289024 122.500008,115.635452 124.604980,116.017395 
	C121.788651,117.034592 118.632362,118.680641 115.393272,118.863968 
	C107.928421,119.286476 100.423347,118.998444 92.465553,118.996445 
	C92.180054,118.448051 92.363594,117.901894 92.777527,117.172813 
	C93.753868,116.990730 94.499802,116.991577 96.088074,116.995148 
	C104.302010,116.312775 111.673599,115.627686 119.045197,114.942596 
z" />
	<path fill="#6B4CE4" opacity="1.000000" stroke="none" d="
M84.245697,119.246590 
	C85.502762,118.830833 87.005104,118.664627 88.753372,118.746506 
	C87.496529,119.161766 85.993752,119.328949 84.245697,119.246590 
z" />
	<path fill="#6B4CE4" opacity="1.000000" stroke="none" d="
M77.246117,119.250427 
	C78.502869,118.834641 80.005386,118.667542 81.753700,118.748993 
	C80.496956,119.164734 78.994423,119.331932 77.246117,119.250427 
z" />
	<path fill="#502EE0" opacity="1.000000" stroke="none" d="
M116.726303,90.743439 
	C114.849571,91.174202 112.699051,91.345825 110.274353,91.259033 
	C112.150955,90.828506 114.301727,90.656403 116.726303,90.743439 
z" />
	<path fill="#4120DE" opacity="1.000000" stroke="none" d="
M130.619720,97.834526 
	C130.038040,98.611694 129.066711,99.759064 128.110947,99.746246 
	C115.706367,99.579971 103.302971,99.282578 90.902718,98.905136 
	C89.715637,98.869011 88.551636,98.074730 87.188553,97.316208 
	C92.870956,96.669205 98.743034,96.052704 104.612152,96.079590 
	C112.030281,96.113556 119.447105,96.650162 126.861626,97.026352 
	C127.994743,97.083855 129.112457,97.444847 130.619720,97.834526 
z" />
	<path fill="#4120DE" opacity="1.000000" stroke="none" d="
M82.803513,96.768394 
	C82.130569,97.153206 81.261520,97.307274 80.196503,97.230339 
	C80.869492,96.845436 81.738449,96.691544 82.803513,96.768394 
z" />
	<path fill="#7052E8" opacity="1.000000" stroke="none" d="
M118.817841,114.684311 
	C111.673599,115.627686 104.302010,116.312775 96.461174,116.994858 
	C97.457016,116.328087 98.865807,115.312729 100.397896,115.067436 
	C104.735870,114.372917 109.124321,113.993660 113.771851,113.215210 
	C115.564041,113.435478 117.077263,113.930748 118.817841,114.684311 
z" />
	<path fill="#3D1CDC" opacity="1.000000" stroke="none" d="
M162.998749,148.001709 
	C162.998749,148.001709 163.491867,148.008728 163.897644,148.300430 
	C166.150238,150.078293 167.997025,151.564453 170.003143,153.361099 
	C170.447906,154.780762 170.733368,155.889938 170.630646,156.999603 
	C168.991959,157.340302 167.580765,157.415649 166.515686,158.061646 
	C155.488297,164.749817 144.472031,171.459671 133.589325,178.378494 
	C132.308334,179.192886 131.846512,181.295715 131.004944,182.801270 
	C123.982964,182.829437 116.960991,182.857590 109.548904,182.531616 
	C127.105438,170.785568 145.052094,159.393631 162.998749,148.001709 
z" />
	<path fill="#4524DF" opacity="1.000000" stroke="none" d="
M131.467072,182.852371 
	C131.846512,181.295715 132.308334,179.192886 133.589325,178.378494 
	C144.472031,171.459671 155.488297,164.749817 166.515686,158.061646 
	C167.580765,157.415649 168.991959,157.340302 170.868744,157.166275 
	C172.027313,157.884949 172.559631,158.437439 173.133484,159.311218 
	C173.762070,160.749878 174.349152,161.867233 174.556351,162.988861 
	C173.203415,163.163162 172.058319,163.059158 171.283829,163.545441 
	C163.126419,168.667343 154.986542,173.820892 146.965500,179.151749 
	C145.945877,179.829391 145.632904,181.570312 144.992554,182.818634 
	C140.638107,182.846909 136.283661,182.875198 131.467072,182.852371 
z" />
	<path fill="#4525DE" opacity="1.000000" stroke="none" d="
M162.830811,147.691437 
	C145.052094,159.393631 127.105438,170.785568 109.082809,182.488373 
	C106.308151,182.835327 103.609474,182.871399 100.465561,182.856628 
	C107.012360,177.997940 113.915260,173.053650 121.016983,168.413681 
	C132.111465,161.164993 143.359528,154.151749 154.499863,146.972565 
	C157.403702,145.101227 160.113251,143.748001 162.830811,147.691437 
z" />
	<path fill="#502DE1" opacity="1.000000" stroke="none" d="
M145.445572,182.867630 
	C145.632904,181.570312 145.945877,179.829391 146.965500,179.151749 
	C154.986542,173.820892 163.126419,168.667343 171.283829,163.545441 
	C172.058319,163.059158 173.203415,163.163162 174.706238,163.241669 
	C175.788956,164.023224 176.341919,164.556213 176.894867,165.089218 
	C177.159103,166.189117 177.423340,167.289032 177.843796,168.694458 
	C177.999908,169.444702 177.999817,169.889404 177.997223,170.667664 
	C172.573700,174.143051 166.117172,175.893173 162.998672,182.500519 
	C160.620819,182.889374 158.256943,182.926132 155.450012,182.969589 
	C151.970856,182.956406 148.934723,182.936523 145.445572,182.867630 
z" />
	<path fill="#744DEC" opacity="1.000000" stroke="none" d="
M177.997559,147.999512 
	C181.056580,147.668198 184.115585,147.336868 187.593094,147.004562 
	C190.216660,153.131500 189.846344,153.659729 181.147842,155.727661 
	C180.002838,154.380066 179.497345,153.186676 178.951782,151.650925 
	C178.606995,150.205551 178.302277,149.102524 177.997559,147.999512 
z" />
	<path fill="#6942E9" opacity="1.000000" stroke="none" d="
M178.991867,151.993286 
	C179.497345,153.186676 180.002838,154.380066 180.748566,155.785751 
	C180.990189,156.442398 180.991547,156.886734 180.600616,157.722488 
	C177.836227,158.405899 175.464081,158.697906 173.091949,158.989914 
	C172.559631,158.437439 172.027313,157.884949 171.256912,157.165802 
	C170.733368,155.889938 170.447906,154.780762 170.419067,153.292755 
	C173.447754,152.607025 176.219803,152.300156 178.991867,151.993286 
z" />
	<path fill="#744DEC" opacity="1.000000" stroke="none" d="
M173.133484,159.311218 
	C175.464081,158.697906 177.836227,158.405899 180.600006,158.055725 
	C183.925644,162.484558 179.323380,162.783401 177.123962,164.817047 
	C176.341919,164.556213 175.788956,164.023224 175.086121,163.237396 
	C174.349152,161.867233 173.762070,160.749878 173.133484,159.311218 
z" />
	<path fill="#5E3AE6" opacity="1.000000" stroke="none" d="
M178.951782,151.650925 
	C176.219803,152.300156 173.447754,152.607025 170.259766,152.982269 
	C167.997025,151.564453 166.150238,150.078293 164.144226,148.301636 
	C165.208862,145.479996 167.050949,145.071625 169.698334,145.843628 
	C171.375778,146.332794 173.300079,145.975388 175.546371,145.995529 
	C176.495895,146.550995 177.012726,147.108566 177.763550,147.832825 
	C178.302277,149.102524 178.606995,150.205551 178.951782,151.650925 
z" />
</svg>
