<?xml version="1.0" standalone="no"?>
<!DOCTYPE svg PUBLIC "-//W3C//DTD SVG 20010904//EN"
 "http://www.w3.org/TR/2001/REC-SVG-20010904/DTD/svg10.dtd">
<svg version="1.0" xmlns="http://www.w3.org/2000/svg"
 width="445.000000pt" height="147.000000pt" viewBox="0 0 445.000000 147.000000"
 preserveAspectRatio="xMidYMid meet">

<g transform="translate(0.000000,147.000000) scale(0.100000,-0.100000)"
fill="#000000" stroke="none">
<path d="M667 1112 c-33 -35 -57 -92 -57 -137 l0 -35 -74 0 -74 0 -6 -36 c-8
-39 15 -135 36 -152 7 -5 39 -18 71 -28 76 -24 55 -32 -78 -33 -187 -2 -203
-12 -142 -93 l33 -43 159 -5 160 -5 -168 -104 c-92 -58 -164 -108 -159 -113 4
-4 163 -9 352 -10 l345 -3 29 35 c16 19 35 49 42 67 20 46 17 130 -5 178 -17
36 -136 184 -357 447 l-82 97 -25 -27z"/>
<path d="M1328 834 c-5 -4 -8 -85 -8 -181 l0 -173 105 0 c119 0 155 12 180 60
21 42 19 74 -10 108 -22 27 -23 30 -8 45 27 26 22 83 -10 115 -26 25 -33 27
-135 30 -59 2 -110 0 -114 -4z m199 -80 c9 -12 9 -22 2 -35 -8 -15 -21 -19
-69 -19 l-60 0 0 41 0 42 57 -6 c37 -4 62 -12 70 -23z m-6 -124 c12 -7 19 -21
19 -40 0 -37 -23 -50 -89 -50 l-51 0 0 50 0 50 51 0 c28 0 59 -5 70 -10z"/>
<path d="M3796 831 c-6 -9 -126 -341 -126 -347 0 -2 17 -4 39 -4 34 0 39 3 47
33 l10 32 69 0 69 0 10 -32 c8 -30 13 -33 47 -33 22 0 39 4 39 9 0 5 -28 86
-61 180 l-61 171 -39 0 c-21 0 -40 -4 -43 -9z m64 -147 c11 -36 20 -68 20 -70
0 -6 -76 -5 -82 2 -5 5 32 134 39 134 1 0 11 -30 23 -66z"/>
<path d="M4047 833 c-4 -3 -7 -84 -7 -180 l0 -173 40 0 40 0 0 180 0 180 -33
0 c-19 0 -37 -3 -40 -7z"/>
<path d="M1990 781 c0 -34 -3 -41 -20 -41 -15 0 -20 -7 -20 -25 0 -18 5 -25
20 -25 19 0 20 -7 20 -93 0 -59 4 -97 12 -105 7 -7 31 -12 55 -12 39 0 43 2
43 25 0 18 -5 25 -20 25 -18 0 -20 7 -20 80 0 73 2 80 20 80 15 0 20 7 20 25
0 18 -5 25 -19 25 -16 0 -20 8 -23 38 -3 34 -6 37 -35 40 -32 3 -33 2 -33 -37z"/>
<path d="M2157 813 c-4 -3 -7 -21 -7 -40 0 -23 -5 -33 -15 -33 -9 0 -15 -9
-15 -25 0 -16 6 -25 15 -25 12 0 15 -17 15 -89 0 -104 10 -121 71 -121 35 0
39 3 39 25 0 18 -5 25 -20 25 -18 0 -20 7 -20 80 0 73 2 80 20 80 15 0 20 7
20 25 0 18 -5 25 -20 25 -17 0 -20 7 -20 40 0 37 -2 40 -28 40 -16 0 -32 -3
-35 -7z"/>
<path d="M3397 813 c-4 -3 -7 -21 -7 -40 0 -23 -5 -33 -15 -33 -9 0 -15 -9
-15 -25 0 -16 6 -25 15 -25 12 0 15 -16 15 -83 0 -106 13 -127 76 -127 38 0
44 3 44 20 0 13 -10 24 -25 30 -24 9 -25 14 -25 84 0 70 1 75 23 78 14 2 23
11 25 26 3 18 -1 22 -22 22 -24 0 -26 4 -26 40 0 37 -2 40 -28 40 -16 0 -32
-3 -35 -7z"/>
<path d="M2348 735 c-15 -9 -35 -29 -43 -45 -19 -37 -19 -123 0 -159 19 -39
77 -65 128 -58 40 6 97 49 97 74 0 18 -64 17 -80 -2 -25 -30 -90 -8 -90 31 0
11 18 14 85 14 64 0 87 4 91 14 9 24 -15 91 -41 116 -31 29 -108 37 -147 15z
m100 -57 c26 -26 13 -38 -38 -38 -54 0 -55 1 -40 31 12 22 59 26 78 7z"/>
<path d="M2676 729 c-21 -17 -26 -18 -26 -5 0 12 -10 16 -35 16 l-35 0 0 -130
0 -130 34 0 34 0 3 86 c4 92 17 114 66 114 20 0 23 5 23 35 0 42 -22 47 -64
14z"/>
<path d="M2866 729 c-21 -17 -26 -18 -26 -5 0 11 -9 16 -30 16 l-30 0 0 -130
0 -130 35 0 35 0 0 93 c0 102 7 117 52 117 38 0 48 -29 48 -131 l0 -79 36 0
36 0 -4 111 c-3 107 -4 112 -31 135 -35 30 -85 31 -121 3z"/>
<path d="M1670 650 c0 -90 15 -149 40 -165 23 -14 90 -8 110 10 18 16 20 16
20 2 0 -13 9 -17 35 -17 l35 0 0 130 0 130 -35 0 -35 0 0 -88 c0 -73 -3 -92
-18 -105 -23 -21 -46 -22 -66 -1 -12 12 -16 37 -16 105 l0 89 -35 0 -35 0 0
-90z"/>
<path d="M3080 636 c0 -95 2 -107 23 -129 31 -35 66 -40 110 -18 29 15 37 16
37 5 0 -9 12 -14 35 -14 l35 0 0 130 0 130 -35 0 -35 0 0 -74 c0 -91 -11 -123
-45 -132 -45 -11 -55 8 -55 112 l0 94 -35 0 -35 0 0 -104z"/>
</g>
</svg>
